<?xml version="1.0" encoding="UTF-8"?>
<svg width="396.56" height="460.31" version="1.1" viewBox="0 0 396.5625 460.3125" xmlns="http://www.w3.org/2000/svg">
 <path d="m196.01 458.87c-2.7963-0.68079-8.2807-1.513-12.188-1.8494-30.118-2.5931-60.65-14.001-89.555-33.461-14.107-9.4977-44.205-37.872-51.189-48.258-1.6707-2.4846-4.1969-5.783-5.6137-7.3299s-4.9866-7.0312-7.9329-12.188-5.7096-9.811-6.1407-10.344c-0.43107-0.5329-2.9488-5.8063-5.5949-11.719-2.6461-5.9124-5.6053-12.437-6.576-14.5-14.519-30.851-14.228-128.02 0.48951-163.25 0.77838-1.8629 1.4152-4.1454 1.4152-5.0722 0-2.9629 11.03-25.826 18.3-37.93 15.697-26.137 46.979-60.856 59.965-66.554 1.5562-0.68282 4.7279-2.9704 7.0482-5.0836 7.906-7.2002 32.076-19.473 46.875-23.802 12.664-3.7044 31.004-8.1116 37.564-9.0264 3.3164-0.46252 10.67-1.9764 16.342-3.3643 7.3355-1.7949 14.101-2.7027 23.438-3.1448 7.2188-0.3418 13.649-0.95286 14.289-1.3579 2.1276-1.3462 32.481 1.0857 55.086 4.4134 2.2993 0.33848 15.628 3.6909 31.875 8.0173 28.373 7.5553 55.163 24.594 49.534 31.504-2.358 2.8947-5.7563 8.2888-7.5519 11.987s-5.0421 9.2552-7.2145 12.349c-5.4622 7.7788-9.5589 14.673-10.336 17.395-0.36007 1.2608-2.4785 6.0892-4.7076 10.73-10.863 22.614-15.491 33.138-16.08 36.562-0.35494 2.0625-1.4666 5.6484-2.4704 7.9688s-2.2195 6.5391-2.7015 9.375c-1.5973 9.3976-1.8125 8.8102 3.4699 9.4716 5.3973 0.67578 6.183 1.0441 16.704 7.8314 7.3167 4.7201 13.698 10.696 13.698 12.828 0 2.5029 5.0751 10.935 8.2098 13.641 1.9058 1.6449 3.1826 3.2731 2.8375 3.6182-1.1486 1.1486-11.88-9.1999-13.35-12.874-0.78205-1.9546-2.1659-4.3022-3.0752-5.2169-0.90931-0.91476-2.497-2.7355-3.5283-4.0461-2.4422-3.1037-8.8755-7.441-11.037-7.441-0.93243 0-2.9003-0.89086-4.373-1.9797-3.4961-2.5848-7.3666-1.4092-12.95 3.933-4.6591 4.4582-5.5559 2.7142-1.1719-2.2789 1.5469-1.7618 2.8125-3.6749 2.8125-4.2514 0-2.0357-3.3637-1.0125-5.8004 1.7644-2.563 2.9208-7.1426 3.7883-10.106 1.9143-1.7009-1.0757-3.7814 0.45735-3.7814 2.7864 0 0.98034-0.9436 1.8954-2.3075 2.2377-1.2691 0.31853-3.7666 2.5791-5.55 5.0235s-4.0625 5.2881-5.0648 6.3194c-1.0023 1.0312-2.1047 2.7787-2.4498 3.8832-0.34512 1.1045-1.5178 2.241-2.6061 2.5256-1.7585 0.45986-1.9146 0.98414-1.4035 4.7128 0.55447 4.0453 0.45598 4.2657-2.752 6.1584-3.7991 2.2415-3.7533 3.7266 0.17166 5.5732 1.5088 0.70988 3.798 2.2693 5.087 3.4654 1.2891 1.1961 4.3477 3.0608 6.7969 4.1438 2.5483 1.1268 4.4531 2.5903 4.4531 3.4212 0 8.0258 11.881 10.836 15.182 3.5905 0.58084-1.2748 1.4017-2.3178 1.8241-2.3178s2.8664-1.5882 5.431-3.5293c2.6998-2.0434 7.1483-4.2312 10.566-5.1964 3.2466-0.9169 9.0669-2.6614 12.934-3.8766s9.6687-2.5043 12.892-2.8646c6.6585-0.74426 7.5179-1.401 4.9152-3.7564-1.4285-1.2928-2.7234-1.5269-5.8373-1.0555-7.674 1.1618-7.7674 1.1545-7.476-0.58061 0.156-0.9291-0.30873-1.6406-1.0716-1.6406-1.6208 0-2.7713 2.525-1.5067 3.3066 3.0401 1.8789-3.1692 4.1934-11.25 4.1934-5.9158 0-5.9179-9.4e-4 -3.6834-1.7033 3.1563-2.4046 10.768-5.7967 13.007-5.7967 1.0369 0 1.8852-0.37267 1.8852-0.82816 0-0.45548 0.83867-1.0475 1.8637-1.3155 1.025-0.26806 2.2867-1.5999 2.8036-2.9596 1.1189-2.943 2.6343-2.4284 7.1639 2.4328 1.6088 1.7265 4.2192 3.8427 5.801 4.7027 7.8303 4.257 7.8154 10.375-0.0256 10.517-4.8022 0.087-5.8678 0.38611-5.7786 1.6221 0.1587 2.1996-10.934 6.6831-21.622 8.7394-5.1293 0.98681-5.6369 1.3097-6.343 4.0347-0.9401 3.628-2.2307 4.5385-4.1616 2.936-1.2217-1.0139-1.6626-0.94911-2.6404 0.38805-1.7194 2.3514-3.3108 1.9588-3.3108-0.81664 0-1.5336-0.42982-2.2698-1.1719-2.0074-0.68708 0.24303-1.0687 1.6675-0.92256 3.4432 0.19481 2.3667-0.1638 3.1368-1.6406 3.523-2.6402 0.69043-2.3605 2.9342 0.45381 3.6406 1.2891 0.32354 2.3438 0.97343 2.3438 1.4442s1.0547 1.3365 2.3438 1.9238 2.3438 1.8439 2.3438 2.7924c0 2.6779 1.5841 2.033 2.672-1.088 0.64863-1.8607 1.615-2.8125 2.8554-2.8125 1.6865 0 1.7739 0.28993 0.8698 2.8835-1.6128 4.6266-0.1984 5.0766 8.9089 2.8346 4.3972-1.0825 10.029-1.9865 12.516-2.009 2.4868-0.0225 6.3746-0.3987 8.6396-0.8361 5.127-0.99007 24.096 2.3419 26.707 4.6911 0.45389 0.40842 0.78173 4.1048 0.72854 8.2143-0.0713 5.5119 0.26369 7.7708 1.2774 8.6121 0.75576 0.62723 1.8224 2.8052 2.3703 4.8398 0.54788 2.0347 1.2288 4.3059 1.5133 5.047 1.019 2.6555-1.5826 1.2835-3.6592-1.9297-3.098-4.7938-7.61-6.2007-18.993-5.9225-5.1562 0.12603-13.172 0.11478-17.812-0.025-11.529-0.34722-32.344 3.4897-32.344 5.962 0 0.25412 6.6445 0.37387 14.766 0.26612 14.902-0.19772 20.492 0.48541 17.936 2.1917-0.71266 0.47576-4.4598 0.6364-8.327 0.35698-5.8632-0.42364-9.0558-0.013-19.219 2.4717-9.2233 2.255-14.468 3.0041-21.562 3.0799-5.1576 0.0551-11.173 0.68508-13.372 1.4004-3.7595 1.223-4.1259 1.1786-6.178-0.74928-4.2103-3.9554-12.169-5.1608-11.688-1.7703 0.60962 4.2924 10.357 8.3178 18.451 7.6204 8.8941-0.76635 11.577 1.3895 3.6576 2.9392-4.0289 0.78842-4.9494 1.3464-5.405 3.2763-0.75357 3.1922-3.4611 3.523-4.7991 0.58635-0.71769-1.5752-2.811-3.0411-6.3384-4.4388-2.8968-1.1478-5.8264-2.5182-6.5102-3.0452-0.88287-0.68049-1.4902-0.5681-2.095 0.38765-1.7549 2.7733-0.62554 3.9787 6.8841 7.3481 6.4838 2.9091 8.4183 5.2679 8.0455 9.8103-0.38068 4.6383 0.14847 6.0208 2.5335 6.6194 1.607 0.40332 2.305 1.1376 2.1017 2.211-0.41338 2.1829-6.169 2.7863-6.9582 0.7295-0.89841-2.3412-2.237-1.6966-2.237 1.0772 0 2.7352 8.0941 11.261 13.195 13.899 2.4414 1.2625 2.8122 1.1906 5.4929-1.0651 4.3286-3.6422 3.5786-6.9364-1.1683-5.1316-1.6055 0.61042-2.8066 0.53229-3.8797-0.2524-2.3107-1.6896-0.87762-4.3683 2.337-4.3683 4.2168 0 7.4607-1.6102 7.4607-3.7034 0-1.5831 0.4376-1.7872 2.8125-1.3123 2.687 0.53741 2.8125 0.41926 2.8125-2.6484 0-1.766 0.47789-3.6888 1.062-4.2729 1.751-1.751 0.1807-4.0005-2.7928-4.0005-2.6629 0-5.3722-1.9595-4.2546-3.0771 0.30845-0.30846 2.6627-0.31189 5.2317-7e-3 5.2026 0.61617 6.8387-3.2127 1.8702-4.3768-3.1448-0.7368-2.618-2.3077 0.95594-2.8509 2.4173-0.36743 3.1538-0.97531 3.408-2.8125 0.68044-4.9191 3.3746-6.1154 4.2227-1.875 0.45518 2.2759 1.0365 2.8125 3.0469 2.8125 2.2472 0 2.4319-0.26225 1.9351-2.7466-0.82553-4.1276 5.9812-4.7134 10.219-0.87939 1.0645 0.96303 2.5526 1.751 3.307 1.751 0.75439 0 2.2538 0.61792 3.3321 1.3732 2.4873 1.7422 3.2767 0.97233 2.1207-2.0683-1.1218-2.9506-0.38933-3.8028 1.991-2.3162 1.0008 0.62501 2.6442 1.1364 3.652 1.1364s2.1011 0.43482 2.4296 0.96626c0.35319 0.57149 1.9633 0.70999 3.9408 0.33899 2.4555-0.46065 3.1617-0.33286 2.6587 0.48105-1.2833 2.0765 1.5107 4.2963 2.9427 2.3379 0.99848-1.3655 1.2212-1.4074 1.2212-0.22996 0 2.7484 3.2247 4.5432 8.1625 4.5432 2.6034 0 6.1562 0.58088 7.8949 1.2908 15.811 6.4559 16.487-0.19314 1.0228-10.06-3.7544-2.3955-7.1294-4.3649-7.5-4.3764-0.37064-0.0116-1.7286-0.84596-3.0176-1.8543-2.5577-2.0006-0.72281-2.7382 2.5908-1.0414 0.89535 0.45847 3.3154 1.5583 5.3779 2.4441s5.7541 2.62 8.2036 3.8539c6.4144 3.2311 6.9123 3.0354 8.0056-3.1472 0.94876-5.3652 0.95258-5.35 0.80954 3.2017-0.079 4.7258 0.14461 8.8813 0.49702 9.2345 3.5634 3.5715 3.7339-18.454 0.21008-27.127-1.4929-3.6739-2.2571-7.4088-2.2571-11.031 0-3.0118-0.38076-6.2086-0.84613-7.104s-1.3851-3.5263-2.0438-5.8466c-2.3883-8.4126-8.418-16.769-9.6962-13.438-0.41736 1.0876 0.0271 2.1384 1.3154 3.1102 2.5087 1.8923 4.8547 6.377 3.7069 7.0864-1.3081 0.80847-2.7487-0.39666-2.7487-2.2995 0-7.1214-7.5802-8.797-17.344-3.8337-6.4263 3.2668-8.1855 3.75-13.652 3.75-3.4571 0-7.7866 0.63152-9.6408 1.4062-3.6037 1.5057-8.1134 1.8786-8.1134 0.67088 0-2.572 11.449-5.8271 20.496-5.8271 4.7729 0 5.716-0.32626 8.082-2.7959 3.3877-3.5359 9.6919-5.9758 14.108-5.4602l3.4106 0.39817-0.6012-4.2742c-0.33065-2.3508-1.6321-6.4256-2.8921-9.0551-2.291-4.7811-3.0695-9.4046-1.4109-8.3796 2.8154 1.74 9.3937 15.967 9.4184 20.369 8e-3 1.5818 1.4163 4.1412 3.7776 6.8694 5.3571 6.1897 6.3256 8.5037 7.4892 17.895 0.56835 4.5869 1.4771 10.238 2.0194 12.559 3.18 13.606 3.7083 17.563 3.2409 24.277-0.27298 3.9211-0.85684 12.824-1.2974 19.785-0.44062 6.9609-1.2619 13.711-1.8251 15-1.2693 2.9053-2.852 10.98-3.4954 17.833-0.91289 9.7239-9.6541 30.325-16.548 39-1.5075 1.897-4.5297 6.8496-6.716 11.006-4.2388 8.0583-15.327 20.645-21.319 24.2-1.8047 1.0706-5.1797 4.1242-7.5 6.7858-5.4286 6.227-14.547 13.016-24.844 18.495-2.0625 1.0976-3.9862 2.3614-4.2748 2.8085-0.82757 1.2816-19.06 8.1369-25.796 9.699-3.3535 0.77774-7.258 2.0143-8.6765 2.7478-3.5228 1.8217-20.543 5.8694-29.69 7.0606-4.125 0.53722-10.242 1.3932-13.594 1.9022-8.466 1.2857-28.501 1.0068-34.615-0.482zm42.458-4.7844c12.336-3.9523 11.585-4.9721-1.9622-2.6639-6.0593 1.0324-11.136 1.3498-14.99 0.93719-6.9824-0.74735-15.487 0.17735-17.805 1.936-2.7125 2.0574 28.265 1.8708 34.758-0.20931zm-41.959-2.6067c0.28203-0.73493 2.2727-1.6261 4.4237-1.9803 9.3546-1.5405 13.884-10.971 16.195-33.715 0.7333-7.2188 1.7499-14.094 2.259-15.278 1.9612-4.5621 0.88194-15.801-2.9579-30.803-1.085-4.2387-2.7381-5.0921-8.2864-4.2778l-2.9866 0.43835 0.69353 5.7415c1.4424 11.941 1.1531 17.632-1.2024 23.655-2.1443 5.4829-2.1859 6.0168-0.9811 12.588 1.3228 7.2152 0.52023 12.619-3.4062 22.936-0.78498 2.0625-1.4458 4.3991-1.4684 5.1924-0.0454 1.5916-3.0067 7.7328-4.7302 9.8094-0.60357 0.72725-0.85256 1.7184-0.55332 2.2026 1.7958 2.9057-12.36 2.6782-23.782-0.38208-4.9193-1.318-12.108-3.2374-15.975-4.2654-3.8672-1.0279-9.6416-2.6918-12.832-3.6974s-6.5865-1.8284-7.5469-1.8284-2.2155-0.46934-2.7891-1.043c-0.57363-0.57364-1.6072-0.84603-2.2969-0.60533-3.6537 1.2752 22.797 10.422 42.809 14.803 9.6404 2.1107 24.685 2.4118 25.415 0.50879zm3.766-9.4733c-0.85226-2.2209-0.90121-2.1728 2.928-2.877 1.9336-0.35555 3.8256-1.113 4.2044-1.6831 0.38059-0.57282 0.6952 0.0922 0.70313 1.4861 0.0162 2.8563-0.25607 3.1071-4.3199 3.9778-2.2372 0.47937-3.0666 0.26611-3.5156-0.90392zm58.877 8.9766c1.5835-0.49252 5.1994-1.5708 8.0353-2.3961 2.8359-0.82535 6.5158-2.1242 8.1774-2.8863 1.6616-0.76211 6.0913-2.1775 9.8438-3.1453s8.8615-2.641 11.353-3.7182c2.492-1.0772 5.5783-1.9585 6.8585-1.9585 2.1754 0 5.8275-1.4405 6.8919-2.7185 0.39075-0.46913 9.1714-6.4992 19.503-13.394 3.85-2.5691 12.55-14.299 10.879-14.669-2.2392-0.49494-6.0461 2.5208-7.4631 5.9121-0.81391 1.948-2.9746 4.1512-5.7811 5.895-3.9152 2.4326-13.321 9.3527-16.975 12.489-0.68382 0.58694-3.363 1.6263-5.9536 2.3097-2.5907 0.6834-5.4533 1.9149-6.3613 2.7367-0.90803 0.82176-5.9733 2.5609-11.256 3.8648-5.2829 1.3039-10.298 2.7268-11.145 3.162-0.84706 0.43521-3.4386 1.2941-5.7589 1.9086-2.3203 0.61451-7.3904 2.1322-11.267 3.3726-3.8765 1.2404-7.7788 2.2553-8.6719 2.2553s-1.6238 0.42187-1.6238 0.9375c0 1.1916 6.9314 1.2188 10.715 0.042zm-18.285-12.23c0.40344 0 0.7217-2.8477 0.70725-6.3281-0.0312-7.5101 1.4856-21.42 2.4398-22.374 0.37012-0.37011 0.68674 2.0341 0.70361 5.3427 0.0445 8.7367 1.5136 18.826 2.8626 19.659 1.7952 1.1095 8.7794 1.9639 10.538 1.2891 2.0842-0.79978 2.1794-16.734 0.16293-27.272-0.77334-4.0414-1.4062-11.092-1.4062-15.668-2.5e-4 -13.184-7.9428-27.242-9.203-16.289-0.39286 3.4143-4.3707 3.7163-5.2042 0.3951-0.8068-3.2146-5.2729-5.0792-5.9514-2.4848-0.47718 1.8248-0.60072 1.8434-2.2606 0.34122-2.1098-1.9094-2.2971-4.1109-0.3496-4.1109 0.77344 0 1.4062-0.63281 1.4062-1.4062 0-0.84239-0.86458-1.4062-2.1562-1.4062-1.1859 0-2.6111-0.45486-3.167-1.0108-4.6394-4.6394-7.749 1.9747-4.378 9.312 0.88503 1.9264 1.1989 4.1059 0.81011 5.625-1.321 5.1611-1.5871 9.5881-0.64459 10.724 1.3113 1.58 4.1662 10.095 3.5809 10.68-0.25553 0.25554 0.13603 2.167 0.87015 4.2477 1.7217 4.8799 1.694 5.182-0.54024 5.8911-2.0304 0.64444-2.7476 6.3813-0.9375 7.5 1.5586 0.96328 1.1541 7.0312-0.46875 7.0312-1.9902 0-1.7456 3.1523 0.39484 5.0894 1.1584 1.0484 2.9146 1.5184 4.9219 1.3172 2.9962-0.3003 3.1324-0.17205 3.4123 3.2126 0.26006 3.1445 0.44454 3.3724 1.7076 2.1094 0.77882-0.77882 1.7461-1.416 2.1496-1.416zm0.76468-35.936c-1.1553-2.856-0.88416-6.2062 0.33302-4.1151 0.53387 0.91716 0.83363 2.6047 0.66615 3.75-0.27418 1.875-0.37371 1.9114-0.99917 0.36511zm-2.954-16.716c-0.36932-2.3096-0.2269-4.2992 0.34893-4.875 0.6722-0.6722 0.9729 0.53384 0.9729 3.9021 0 5.8846-0.47993 6.2378-1.3218 0.9729zm-66.178 53.121c0-0.77344-0.58768-1.4062-1.306-1.4062s-1.5488 0.63281-1.8456 1.4062c-0.36705 0.95652 0.0506 1.4062 1.306 1.4062 1.0155 0 1.8456-0.63248 1.8456-1.4062zm-9.8438-5.1562c0-0.77344-0.94922-1.5411-2.1094-1.7058-1.6234-0.23057-2.1094 0.16239-2.1094 1.7058s0.48592 1.9364 2.1094 1.7058c1.1602-0.16477 2.1094-0.93239 2.1094-1.7058zm-39.401-1.2547c-5.0719-3.4412-13.859-6.1618-11.15-3.4519 1.7334 1.7334 8.3636 4.6318 10.681 4.6692 2.2303 0.0359 2.248-0.0101 0.46875-1.2173zm24.152-2.7544c1.4098-0.90179 2.8304-2.704 3.1569-4.0049 1.5044-5.9939 11.031-6.3838 11.973-0.49003 1.2598 7.8781 8.0881 4.8378 8.0881-3.6012 0-1.4531 0.82905-3.6959 1.8423-4.9841 1.0133-1.2882 2.2893-4.3366 2.8356-6.7744 0.54631-2.4377 1.5874-5.8542 2.3136-7.5922s1.617-5.18 1.9797-7.6489c0.36264-2.4689 1.0293-5.4803 1.4814-6.6919 0.45213-1.2116 1.2658-7.5397 1.8081-14.062 0.75029-9.0238 1.3518-12.141 2.5154-13.035 2.1638-1.663 0.6126-2.7389-5.0247-3.4851-5.3444-0.70737-6.0321 0.0657-7.4074 8.3262-0.33566 2.0161-1.8767 6.024-3.4244 8.9062l-2.8141 5.2405 0.64825-3.75c0.35654-2.0625 1.3799-5.4523 2.2742-7.5329 4.4511-10.356 4.4526-14.165 8e-3 -17.33l-2.7833-1.9819-0.91513 2.407c-0.50333 1.3238-1.3681 2.407-1.9217 2.407-1.2742 0-4.6169 7.2704-4.6443 10.101-0.0134 1.3887-0.82057 2.4367-2.3139 3.0045-1.9747 0.7508-2.3329 1.5615-2.5781 5.8362-0.21006 3.6611-0.654 4.9643-1.6911 4.9643-2.2314 0-2.6333 1.5131-1.8676 7.0312 0.78865 5.6833-0.25192 8.1401-2.2832 5.3906-1.8486-2.5021-2.2839-2.0302-2.5947 2.8125-0.23952 3.7329-0.589 4.4531-2.1607 4.4531-1.4605 0-1.9416 0.72541-2.1762 3.2812-0.31918 3.477-2.0425 6.3378-2.0425 3.3906 0-3.1606-2.3439-0.89987-2.6347 2.5412-0.22668 2.6824-0.69272 3.4432-2.1094 3.4432-1.0001 0-1.8184 0.42187-1.8184 0.9375 0 0.51562-0.84375 0.9375-1.875 0.9375-1.25 0-1.875-0.625-1.875-1.875 0-2.5074-1.5205-2.3944-2.1892 0.16269-0.66567 2.5455-0.10504 3.4743 2.753 4.561 1.2412 0.47191 3.6018 2.7662 5.2456 5.0984 1.6439 2.3322 3.5156 4.2404 4.1594 4.2404 1.8304 0 2.4972-1.8159 1.2282-3.345-1.6822-2.0269-0.40617-2.6977 2.6912-1.4147 1.4841 0.61475 3.818 0.83674 5.1863 0.4933 1.8175-0.45617 2.4879-0.26563 2.4879 0.70716 0 1.4074-4.852 5.4342-6.5477 5.4342-1.3633 0-3.038 4.665-2.3298 6.4898 0.51057 1.3156 0.69601 1.3222 1.6789 0.0598 0.60771-0.78054 2.2584-2.157 3.6682-3.0587zm6.8519-13.738c-0.76412-1.2364 1.4191-5.8847 3.0068-6.4019 0.72058-0.23472 1.1719 0.495 1.1719 1.8948 0 2.6121-3.21 6.0744-4.1786 4.507zm7.0206-16.533c-0.051-4.98 1.8988-13.574 3.7793-16.658l1.8092-2.9672 4e-3 5.6489c3e-3 4.3851-0.61912 6.902-2.7796 11.25-2.5308 5.0935-2.7857 5.3406-2.8125 2.7264zm31.324 33.364c1.3269-0.5045 3.7158-2.9303 5.3086-5.3906l2.896-4.4734-0.52626-11.885c-0.52029-11.751 0.25615-17.116 3.2788-22.659 0.54587-1.0009 0.69962-4.3639 0.36434-7.9688-1.3042-14.022-2.1609-16.081-6.6903-16.081-2.1322 0-2.2708 0.25841-1.7182 3.2043 0.53335 2.843 0.35751 3.2394-1.5597 3.5156-1.3636 0.19648-2.4 1.1761-2.809 2.6551-0.35645 1.2891-0.69016 1.8164-0.74155 1.1719-0.1335-1.6741-1.9684-1.4556-1.9684 0.23438 0 0.77344 0.68555 1.4062 1.5234 1.4062 1.1696 0 1.4011 0.61149 0.99683 2.633-0.28964 1.4482-0.12323 4.4283 0.36978 6.6226 1.07 4.7625 0.4935 6.1169-1.9534 4.5888-2.8042-1.7513-3.3585-0.0823-1.6088 4.8441 2.0859 5.8729 2.146 9.5835 0.1428 8.8148-1.274-0.48886-1.3809 0.19602-0.81371 5.2095l0.65307 5.7724-2.5071-0.9532c-2.4636-0.93667-2.5023-0.89236-2.2332 2.5543 0.23611 3.0231-0.0173 3.5488-1.8354 3.807-3.6211 0.51428-1.6256 3.9192 2.2969 3.9192 1.2279 0 2.1562 0.56768 2.1562 1.3185 0 0.85424-0.65618 1.1469-1.8636 0.83114-2.3146-0.60529-3.3556 1.6677-1.9589 4.2773 0.87971 1.6437 2.248 2.1716 7.2771 2.8076 0.61097 0.0772 2.1965-0.2723 3.5234-0.7768zm97.084-5.5436c0-2.5457 5.8835-8.5391 8.3825-8.5391 2.7345 0 0.32827-13.984-4.194-24.375-1.6831-3.8672-3.7839-9.3648-4.6684-12.217-2.1389-6.8967-9.8326-15.473-9.8326-10.96 0 1.9168-2.5447 2.7612-4.7554 1.578-4.4725-2.3936 0.50203 16.966 6.4354 25.045 4.1941 5.7107 6.8812 15.019 6.7181 23.272-0.19019 9.6246-0.14401 10.068 0.97695 9.375 0.51562-0.31867 0.9375-1.7495 0.9375-3.1797zm-67.228 0.83592c-0.26968-1.0312-0.863-1.875-1.3185-1.875-1.2687 0-0.98382 2.5934 0.34371 3.1291 0.64454 0.26007 1.2378 0.50617 1.3185 0.54687 0.0806 0.0407-0.0741-0.76973-0.34372-1.801zm56.415-0.23438c6.0936-3.9885 6.9268-11.126 2.4231-20.759-1.521-3.2532-3.6788-8.5542-4.7952-11.78-1.1164-3.2259-2.6116-6.9802-3.3226-8.343-0.71102-1.3627-1.297-3.1105-1.3021-3.884-5e-3 -0.77344-0.78006-2.6719-1.7221-4.2188-0.94207-1.5469-1.9987-3.9545-2.348-5.3504-0.82582-3.2997-5.837-7.9589-9.9946-9.2924-1.8047-0.57886-3.682-1.4234-4.1719-1.8767-1.1871-1.0987-4.2656-1.0553-4.2656 0.0601 0 0.48639 0.88014 1.5008 1.9559 2.2543 1.6571 1.1607 1.7887 1.6823 0.86154 3.4147-0.60188 1.1246-0.95467 2.1628-0.78399 2.3071 0.17068 0.14427 2.1033 1.379 4.2947 2.744 3.1739 1.9768 3.9844 3.0248 3.9844 5.1516 0 1.4684 1.0547 4.2241 2.3438 6.1236 1.7482 2.5762 2.3438 4.6784 2.3438 8.2735 0 3.6095 0.4955 5.3472 1.9732 6.9202 2.2569 2.4024 1.7254 4.1704-1.0367 3.4481-2.2183-0.5801-2.4014 0.54797-0.49762 3.065 0.75703 1.0009 1.3898 2.7968 1.4062 3.9908 0.0393 2.8589 1.6607 5.7977 3.1988 5.7977 1.5774 0 4.5326 3.236 3.7081 4.0604-0.34488 0.34488-1.449 0.62705-2.4536 0.62705-1.7051 0-1.73 0.14745-0.37365 2.2174 1.1208 1.7105 1.199 2.475 0.34219 3.3444-3.1652 3.2115 3.7438 4.6416 8.232 1.7038zm31.439-11.429c0-1.9119-1.8374-2.8117-3.1207-1.5284-0.81814 0.81814-0.74098 1.2982 0.31606 1.9665 1.9783 1.2507 2.8047 1.1216 2.8047-0.4381zm-201.56-4.6262c5.37-1.6052 5.4655-3.5903 0.22872-4.751-3.7578-0.83291-4.6551-2.6741-2.4861-5.1012 0.674-0.75419 6.1387 2.1061 7.3628 3.8538 2.2858 3.2634 26.77-13.395 26.77-18.213 0-0.55574 2.9458-6.995 6.5463-14.309 13.021-26.453 12.988-27.268-1.7513-42.32-7.5202-7.6802-10.263-8.4847-12.463-3.6557-1.5814 3.4707-10.944 10.357-19.969 14.688l-8.074 3.8742-16.598-0.0739c-13.094-0.0583-18.369 0.30847-24.991 1.7374-4.6165 0.99623-10.641 1.8113-13.389 1.8113-6.1218 0-6.8659 1.2673-3.584 6.1036 1.3187 1.9432 2.3976 3.8852 2.3976 4.3157 0 1.6393 13.31 7.0312 14.913 6.0409 0.44678-0.27612 1.3633 0.16185 2.0367 0.97325 1.4284 1.7212 4.4993 1.4124 19.144-1.9246 5.1562-1.1749 12.117-2.6482 15.469-3.274 3.8539-0.71954 7.8167-2.2655 10.781-4.206 2.5781-1.6876 7.7803-4.701 11.56-6.6965 6.1489-3.246 7.3339-4.3451 11.25-10.434 4.849-7.5395 5.7834-8.1835 5.7834-3.9858 0 5.1081-9.4582 19.65-12.781 19.65-0.68039 0-3.7276 2.5374-6.7716 5.6386-4.8241 4.9148-5.5979 5.3961-6.0284 3.75-0.67128-2.567-2.0222-2.3741-3.3199 0.474-0.59206 1.2994-2.1363 2.7655-3.4317 3.258s-2.3553 1.5255-2.3553 2.2955c0 0.91402-0.53524 1.1946-1.5418 0.80839-1.9809-0.76015-4.0832 2.052-4.0832 5.4618 0 3.0644-1.6606 4.4638-2.4266 2.0449-1.8275-5.7705-2.3613-6.4569-3.6504-4.694-0.67357 0.92115-1.0091 2.499-0.74574 3.5062 0.69316 2.6506-0.56383 2.2518-1.6148-0.51232-1.7263-4.5405-4.9-3.0914-4.6197 2.1094 0.50035 9.2836 0.29863 9.884-3.1146 9.2701-8.0788-1.4529-11.015-1.7069-11.01-0.95242 0.0075 1.0357 5.3193 4.1042 7.1047 4.1042 0.73352 0 2.9079 0.84375 4.832 1.875 5.244 2.8106 10.03 2.4115 17.615-1.4689 13.155-6.7305 22.865-12.164 24.597-13.765 1.8883-1.7458 4.9082-2.2204 4.9082-0.77137 0 1.5476-6.2584 6.0627-14.239 10.273-4.2858 2.2609-8.4251 4.6249-9.1986 5.2534-4.0412 3.2837-16.543 7.454-21.328 7.1146-3.1394-0.22266-3.6278 0.37079-2.1832 2.6527 0.56096 0.88608 2.9407 1.3863 7.2513 1.5243 3.529 0.11295 6.7047 0.25771 7.0571 0.32171 0.35247 0.0639 0.77435 1.2667 0.9375 2.6727 0.20413 1.7592 4.9841 6.4734 4.9841 4.9156 0-2.3e-4 1.8984-0.56792 4.2188-1.2615zm-46.932-50.943c-1.258-0.8606-2.6357-2.011-3.0617-2.5566-0.53078-0.67972-0.92413-0.62306-1.25 0.18004-0.72359 1.7833-2.9439 1.3996-4.0693-0.70313-0.55191-1.0312-1.9378-1.9036-3.0799-1.9384l-2.0764-0.0634 2.0576-0.99422c1.1541-0.55766 2.8007-0.66396 3.75-0.2421 0.93081 0.41366 2.9294 0.78414 4.4413 0.8233 2.0787 0.0538 3.1918 0.82487 4.5652 3.1622 2.1857 3.7198 1.7948 4.4338-1.277 2.3324zm257.37 40.029c-0.0337-5.9659-2.1428-10.204-9.8696-19.831-2.5958-3.2344-6.0329-8.5484-7.6381-11.809-3.6825-7.4802-6.5989-9.9252-13.615-11.414-8.0737-1.7134-9.9108-1.1666-6.5822 1.959 1.418 1.3314 2.5781 3.0454 2.5781 3.8086s0.88694 2.1905 1.971 3.1715c1.084 0.98105 2.5592 2.9212 3.2781 4.3114s2.4687 3.0836 3.8884 3.7631c2.0793 0.99517 2.6085 1.9118 2.7214 4.7129 0.0771 1.9126 0.81539 4.1527 1.6406 4.9779 0.82525 0.82525 1.5004 2.2923 1.5004 3.2602 0 0.96784 1.0997 2.9416 2.4438 4.3862 2.4178 2.5984 2.4222 2.6297 0.41395 2.9332-3.0985 0.46825-1.9701 3.1579 2.2418 5.3436 4.2848 2.2235 5.1222 3.7532 2.4387 4.455-2.795 0.73089-2.3635 3.3507 0.66479 4.0366 1.418 0.32116 3.8438 0.88378 5.3906 1.2503 4.1741 0.98894 6.572-2.43 6.533-9.315zm6.8597-2.0928c1.547-1.8767 0.65905-10.489-1.1187-10.85-2.1333-0.43318-1.8426-2.863 0.57686-4.8222 2.8632-2.3185 1.8795-3.9823-7.3219-12.383-15.369-14.032-20.082-10.34-7.0818 5.5475 5.4122 6.6144 9.5216 12.659 9.5216 14.006 0 0.55368 0.65393 1.5494 1.4532 2.2127 0.79926 0.66332 1.3854 2.0861 1.3025 3.1617-0.24099 3.1269-9.4e-4 4.2994 0.87954 4.2994 0.45249 0 1.2574-0.52734 1.7888-1.1719zm31.869-8.0496c0.23502-0.70507-0.24529-0.86704-1.3549-0.4569-1.8085 0.66846-3.0868 2.0921-3.1109 3.4646-0.0191 1.0919 4.002-1.6164 4.4657-3.0077zm-13.471-6.6229c2.5036-2.7664 0.12706-3.263-2.8948-0.60484-2.4471 2.1526-2.4984 2.3297-0.6819 2.3572 1.0802 0.0163 2.6898-0.77225 3.5767-1.7523zm18.365-0.0931c0.80092-1.4965 0.71296-1.875-0.43577-1.875-0.79158 0-1.4392 0.17644-1.4392 0.39207 0 0.21565-0.25607 1.0594-0.56905 1.875-0.82714 2.1555 1.2598 1.8207 2.444-0.39207zm-295.31-5.2116c0-2.439-1.7177-3.0082-3.5497-1.1762-0.85793 0.85793-0.76499 1.4959 0.40654 2.7904 1.8722 2.0688 3.1432 1.4161 3.1432-1.6142zm11.062-1.2353c-0.81273-2.6041-1.7438-3.8656-2.8532-3.8656-2.0126 0-2.1726 1.4726-0.24049 2.214 0.77344 0.29679 1.4062 1.5724 1.4062 2.8347s0.52734 2.4834 1.1719 2.7136c1.7751 0.63396 1.8211 0.28636 0.51554-3.8967zm264.56-0.11558c3.1357-3.1357 1.6073-9.7424-3.8789-16.767-0.96037-1.2297-1.7461-2.6008-1.7461-3.0469 0-1.6704 2.6511-0.72834 4.0777 1.449 0.81447 1.243 2.9563 2.747 4.7597 3.3422 2.883 0.95149 3.2192 1.386 2.7849 3.5993-0.63219 3.2217 1.9939 9.5484 3.9634 9.5484 1.2117 0 1.3772-0.64392 0.86595-3.3692-0.47865-2.5514-0.26299-3.639 0.88846-4.481 2.4385-1.7831 0.34661-5.496-5.0461-8.9565-2.6074-1.6732-7.8113-6.466-11.564-10.651-13.218-14.739-15.335-16.227-18.725-13.159-1.383 1.2516-1.9707 1.3342-2.8863 0.40563-0.90978-0.92262-0.77484-1.4427 0.64657-2.4919 1.6983-1.2536 1.5974-1.409-1.8476-2.8484-5.7847-2.417-9.5961 1.7496-4.9694 5.4324 4.0844 3.2511 12.448 8.4791 16.249 10.158 3.9201 1.7309 8.9276 5.9368 8.9276 7.4985 0 2.7066-8.9342-1.4919-19.219-9.0316-9.7639-7.158-19.422-11.703-20.648-9.7183-0.33158 0.53652-2.2549 2.0184-4.2741 3.293-5.0259 3.1727-2.1482 6.044 6.0575 6.044 1.242 0 2.501 0.63281 2.7978 1.4062 0.31545 0.82206 1.7202 1.4062 3.3816 1.4062 2.2169 0 2.8419 0.41235 2.8419 1.875 0 1.2699 0.625 1.875 1.9366 1.875 3.2292 0 5.5634 1.7839 5.5634 4.2517 0 1.9602 0.4419 2.3108 2.9128 2.3108 2.2171 0 2.7769 0.33589 2.3438 1.4062-0.31298 0.77344-0.80583 1.9888-1.0952 2.7008-0.67399 1.6582 4.5842 3.5867 7.6686 2.8126 1.6692-0.41894 2.2326-0.17396 2.2326 0.97074 0 0.8421 1.0547 1.9321 2.3438 2.4222 2.8557 1.0858 3.0593 3.3965 0.37438 4.2487-1.3041 0.4139-1.6548 0.93965-1.0382 1.5563s1.6246 0.56013 2.9837-0.16724c2.4092-1.2894 4.6303 0.81728 4.6815 4.4404 0.0383 2.7074 3.0567 2.8324 5.6548 0.23437zm26.189-19.922c0.87061-2.2497-0.28545-4.7397-4.2439-9.1406-5.1136-5.6852-9.7578-11.419-9.7578-12.046 0-0.72019-6.0965-4.4871-15.469-9.5579-9.0556-4.8995-9.8725-5.5832-6.6708-5.5832 3.961 0 13.592 4.9804 18.483 9.5577 2.3719 2.2198 6.8254 6.0866 9.8966 8.5928 3.0713 2.5062 6.564 5.9867 7.7615 7.7344 2.2242 3.2461 5.6856 4.3159 5.6856 1.7572 0-4.0482-3.3421-12.944-5.4004-14.374-1.2263-0.85212-4.0606-3.076-6.2983-4.9419-2.2378-1.866-5.1688-3.6688-6.5135-4.0063-1.3446-0.33748-4.6525-1.9928-7.3507-3.6785-9.0473-5.6523-17.08-7.7005-19.371-4.9394-0.67812 0.81709-0.94545 1.4856-0.59408 1.4856 0.35139 0 0.37744 0.42302 0.0579 0.94003-0.38298 0.61968-1.2393 0.58773-2.5126-0.0937-2.3409-1.2528-12.798-1.3776-14.009-0.16714-0.53053 0.53054 2.3237 2.4264 7.3594 4.8883 5.6476 2.761 9.7174 5.5573 12.984 8.9209 3.0647 3.1558 5.8478 5.1172 7.8205 5.5118 1.8566 0.37133 3.2416 1.2967 3.517 2.35 0.33877 1.2954 1.0693 1.6199 2.8715 1.2754 2.0978-0.40102 2.3476-0.19622 1.891 1.55-0.43185 1.6514-0.1165 2.012 1.7592 2.012 1.257 0 2.5213 0.61463 2.8095 1.3658 0.35843 0.93405 1.3446 1.2018 3.1193 0.84682 2.8131-0.56263 6.6102 3.9114 6.6102 7.7886 0 3.9761 4.2094 5.4527 5.5642 1.9518zm12.719-9.6578c2.5818-8.3235 2.7928-9.7954 1.4039-9.7954-0.51563 0-0.9375 0.56542-0.9375 1.2565s-1.2447 3.7497-2.766 6.7969-3.0312 7.4388-3.3552 9.7591l-0.58918 4.2188 1.9513-2.3438c1.0732-1.2891 3.005-5.7405 4.2927-9.8921zm-140.07 8.9546c-1.1207-4.167-1.0128-21.922 0.12632-20.783 0.73949 0.73937 1.218 3.9198 1.265 8.4081 0.0859 8.2005 1.3475 11.438 4.4574 11.438 3.4388 0 4.4715-1.6878 3.0981-5.063-1.0522-2.5858-1.8846-6.0656-4.1645-17.41l-0.65403-3.2544-7.8039-0.0593c-4.2922-0.0326-7.9759 0.21906-8.1861 0.55918-0.85575 1.3846 2.6312 9.4005 3.8807 8.921 1.9991-0.76712 2.3637 0.83704 0.96671 4.2538-1.5407 3.7683-0.665 12.691 1.3757 14.018 2.0818 1.3534 6.083 0.62425 5.6388-1.0276zm-12.685-8.2031c-0.29473-5.0273-0.65767-11.25-0.80652-13.828l-0.27065-4.6875-4.9765-0.50361c-7.6521-0.77437-7.8096-0.48574-7.3411 13.451 0.22062 6.563 0.56867 12.073 0.77343 12.244 0.36615 0.3059 9.504 2.1008 11.921 2.3416 0.9799 0.0976 1.1251-1.7719 0.70033-9.0175zm-17.534 6.5625c2.7887-5.2309-0.11577-34.977-3.4084-34.908-2.5172 0.0531-2.9528 1.7057-2.231 8.4638 0.41065 3.8448 0.46197 9.5219 0.11404 12.616-0.55465 4.9319-0.64959 4.3832-0.77044-4.4531-0.13711-10.025-0.1499-10.078-2.4284-10.078-2.7511 0-5.2094 3.1691-5.2094 6.7158 0 1.4017-0.36116 2.7718-0.80258 3.0446-0.44142 0.27281-0.59889 2.6158-0.34994 5.2067 0.28329 2.9482 0.0272 5.2233-0.68438 6.0808-1.579 1.9025-0.62028 3.0093 3.2328 3.7321 1.8104 0.33963 3.2916 0.97515 3.2916 1.4123 0 0.7083 5.999 3.6368 7.7014 3.7595 0.36858 0.0265 1.0637-0.68997 1.5448-1.5923zm81.995-2.4865c0.66605-1.7357-0.13953-2.4354-2.8038-2.4354-1.5625 0-2.1875 0.53572-2.1875 1.875 0 2.2222 4.1738 2.6908 4.9914 0.56041zm-109.61-6.3235c-0.27172-0.43966-1.3129-0.79939-2.3137-0.79939-2.0529 0-2.5842 3.3074-0.6478 4.0328 1.3557 0.50791 3.6952-2.0463 2.9615-3.2334zm80.15 2.409c4.9923-1.9975 5.5724-3.946 2.0058-6.7373-1.5686-1.2276-2.852-2.8222-2.852-3.5436 0-4.7818-4.6299-11.678-7.8405-11.678-6.9371 0-7.7141 1.9133-3.8783 9.5502 1.2891 2.5665 2.3438 5.7055 2.3438 6.9756 0 5.221 4.6169 7.6749 10.221 5.4325zm-83.954-5.7133c0.5717-1.0158 1.653-1.2577 3.8115-0.8528 4.0453 0.75891 6.0629-1.5997 9.4226-11.015 1.4557-4.0796 3.6772-8.3222 4.9998-9.5486l2.3802-2.207-3.6749-1.6594c-6.1082-2.7582-12.516-7.0936-13.072-8.8435-0.28793-0.90717-1.7157-2.065-3.1729-2.573-1.7575-0.61266-2.8746-1.8208-3.3183-3.5887-1.1321-4.5106-8.0182-7.7926-8.0182-3.8215 0 0.65885-0.84375 1.9203-1.875 2.8033-1.0312 0.88299-1.875 2.2291-1.875 2.9914 0 0.82073-0.55021 1.1749-1.3491 0.86832-0.96207-0.36918-1.5299 0.44605-1.9793 2.8419-0.34664 1.8478-1.1507 3.3596-1.7869 3.3596-0.63614 0-1.9323 0.85714-2.8804 1.9048-0.94807 1.0476-2.3846 1.8105-3.1922 1.6953-2.3849-0.34012-5.6872 1.1124-5.6872 2.5015 0 1.8567 1.332 2.4259 5.8496 2.4997 4.9732 0.0813 7.2754 0.64274 7.2754 1.7744 0 0.48087-0.84375 0.87432-1.875 0.87432s-1.875 0.42187-1.875 0.9375c0 0.51562-1.0547 0.9375-2.3438 0.9375-1.4797 0-2.3438 0.52928-2.3438 1.4357 0 2.6247 2.8249 2.6532 5.5359 0.0559 3.1506-3.0185 6.2317-1.2244 4.0091 2.3346-0.97093 1.5547-0.86151 1.7989 0.8061 1.7989 3.5922 0 7.4497-2.8091 9.3725-6.8254 2.9315-6.1229 8.7068-12.368 10.723-11.594 2.1041 0.80742 1.4486 7.9656-0.84716 9.2503-0.81076 0.45372-1.4741 1.5002-1.4741 2.3256 0 6.4236-7.4424 15.15-13.721 16.087-4.523 0.67524-4.5414 0.69207-2.217 2.0379 6.2764 3.6341 12.724 4.1781 14.392 1.2142zm3.4206-4.471c0-0.74301 0.42187-1.6117 0.9375-1.9303 0.51562-0.31867 0.9375 0.28924 0.9375 1.3509s-0.42188 1.9303-0.9375 1.9303c-0.51563 0-0.9375-0.60791-0.9375-1.3509zm2.4432-6.3835c0.63503-3.7117 2.2776-7.2656 3.3581-7.2656 0.93058 0-0.0375 4.7408-1.2348 6.0469-0.44905 0.48985-0.81646 1.65-0.81646 2.5781s-0.41133 1.6875-0.91406 1.6875c-0.51318 0-0.68545-1.3363-0.39278-3.0469zm95.997 6.3132c5.6183-2.8724 7.1276-7.3833 3.1363-9.3732-3.4712-1.7306-5.1468-3.5327-8.0223-8.6279-3.0897-5.4746-5.8223-6.5056-7.255-2.7372-0.4633 1.2186-1.7266 2.4468-2.8072 2.7294-2.2747 0.59485-1.8948 9.741 0.55294 13.31 0.69744 1.0171 1.2681 2.5781 1.2681 3.469 0 3.5819 7.2059 4.2567 13.127 1.2294zm-187.24-0.97735c4.1194-1.4636 4.6152-1.4704 6.1466-0.0845 1.5321 1.3865 1.8489 1.3792 3.9471-0.0904 1.2547-0.87883 3.2081-1.4764 4.3409-1.328 1.1328 0.14844 2.9301-0.60055 3.994-1.6644 1.0639-1.0639 2.9561-1.9343 4.205-1.9343 1.4892 0 3.3755-1.2907 5.4806-3.75 1.7654-2.0625 3.8702-3.75 4.6772-3.75 4.6741 0 7.7362-8.984 4.9095-14.404-2.0433-3.9178-1.9225-6.0186 0.24015-4.177 3.3207 2.8276 10.515 5.4988 13.143 4.8802 6.815-1.6039 20.84-13.361 20.841-17.471 5.9e-4 -2.9028-1.4186-3.4854-2.1041-0.86377-0.28044 1.0724-2.8664 2.6872-6.9062 4.3123-3.5518 1.4289-7.1819 2.9724-8.0667 3.43-5.8899 3.046-21.587 1.1062-22.136-2.7356-0.46395-3.2455-2.3814-3.3934-7.851-0.60543-2.7318 1.3924-5.6472 2.8737-6.4787 3.2917-6.3237 3.1793-26.035 3.4519-34.468 0.47674-2.2551-0.79558-6.2648-1.4466-8.9104-1.4466s-6.284-0.43779-8.0853-0.97286c-12.248-3.6384-34.647-2.4874-30.588 1.5719 1.2289 1.2289 2.5024 3.9201 2.8328 5.9862 1.2067 7.5464 0.7288 7.427 37.9 9.4697 20.139 1.1067 26.914 0.70749 36.863-2.1722 4.7458-1.3737 6.4814-0.49635 2.6101 1.3195-5.9883 2.8088-20.212 5.2477-25.067 4.2981-2.4133-0.47201-7.7628-0.61934-11.888-0.3274-4.125 0.29193-10.031 0.0834-13.125-0.4634-3.0938-0.54681-10.582-1.1494-16.641-1.3392l-11.016-0.34499v3.2061c0 1.9264-0.46774 3.2161-1.1719 3.2313-1.6914 0.0364 5.1016 5.5444 6.875 5.5746 2.2481 0.0382 2.7412 0.9773 1.5308 2.9154-1.8934 3.0318 0.56654 4.4529 4.0974 2.3672 2.7979-1.6527 2.9304-1.6486 4.9127 0.1549 4.0405 3.6761 6.0012 4.0623 20.818 4.1005 8.6194 0.0222 14.733 0.41782 15.078 0.97562 0.64341 1.041 2.4322 0.71787 9.0596-1.6368zm25.296-29.186c0.87166-0.87165 1.8481-1.3216 2.1698-0.99988 0.92267 0.92268-0.49377 2.5847-2.2028 2.5847-1.4311 0-1.4285-0.12331 0.033-1.5848zm259.8 18.874c0.68916-1.7959-0.86807-9.0513-2.7052-12.604-0.9175-1.7743-3.6604-3.7619-8.4726-6.1397-4.3849-2.1666-6.6847-3.7826-5.9923-4.2105 1.7198-1.0629 6.012 0.50426 12.411 4.5315 3.193 2.0096 7.071 4.0772 8.6179 4.5946 3.0925 1.0345 3.2616 1.9008 1.9686 10.084-0.66028 4.1789-0.5851 4.516 0.75859 3.4008 0.86892-0.72113 1.4915-2.677 1.4915-4.6856 0-1.8962 0.46605-3.9138 1.0357-4.4834 1.4781-1.4781 2.2736-16.447 0.9914-18.655-0.88332-1.5212-1.0502-1.2362-1.1545 1.9718-0.16017 4.9249-1.1202 8.2075-2.5386 8.6803-1.1793 0.39309-1.516-0.24376-2.5006-4.7291-0.37171-1.6933-1.4704-2.9494-3.1252-3.5731-1.4036-0.52899-3.8176-1.5982-5.3644-2.376-1.5469-0.7778-6.3984-1.7991-10.781-2.2696-11.195-1.2017-12.231-1.1554-11.589 0.51749 0.34171 0.89048-0.0129 1.4062-0.96692 1.4062-0.82861 0-1.5066-0.63281-1.5066-1.4062s-0.42188-1.4062-0.9375-1.4062c-0.51563 0-0.9375 0.42187-0.9375 0.9375 0 1.459-5.0977 1.1109-12.969-0.8856-12.439-3.1551-16.284-3.3692-18.405-1.0252-2.0897 2.3091-1.135 4.993 1.9431 5.4629 4.6373 0.70787 5.7417 1.2434 6.6452 3.2223 1.2251 2.6831 10.401 5.1487 13.329 3.5816 2.4068-1.2881 2.5877-1.256 3.294 0.58464 0.33044 0.86112 0.15036 1.8441-0.4002 2.1843s-0.73064 1.3232-0.4002 2.1843c0.79771 2.0788 6.9627 2.2129 6.9627 0.15148 0-1.1672 0.31913-1.2149 1.8273-0.27301 1.3476 0.8416 1.566 1.4561 0.83192 2.3406-0.73754 0.88868-0.54303 1.3599 0.75078 1.819 0.96042 0.34074 2.6338 1.416 3.7186 2.3895 1.7401 1.5616 2.5093 1.6496 6.5332 0.74788 6.7848-1.5205 13.84 1.7184 10.244 4.7027-2.2947 1.9044-1.6309 3.0108 1.4062 2.3438 2.1986-0.4829 2.8125-0.29452 2.8125 0.86301 0 1.912 2.4406 1.927 3.1726 0.0196zm-134.77-2.7278c0.29052-0.75708-0.11569-3.1829-0.90272-5.3906-2.3001-6.4523-2.674-12.152-0.77411-11.801 2.3596 0.43499 5.2794 7.182 5.1185 11.828-0.18111 5.2296 1.1984 5.7129 6.9242 2.426 10.664-6.122 13.876-10.397 10.141-13.498-0.77344-0.6419-1.4062-1.6866-1.4062-2.3216 0-1.4378-4.2547-6.1159-5.5624-6.1159-1.7565 0-2.043 4.1581-0.57336 8.321 1.8435 5.2218 1.8192 5.7415-0.26835 5.7415-1.8207 0-3.1177-2.0575-4.8286-7.6594-1.5221-4.984-3.1961-6.109-6.8894-4.6296-1.6344 0.65467-4.2943 1.5846-5.9108 2.0665-3.8401 1.1448-5.3933 4.814-4.5155 10.667 0.43686 2.9132 0.26127 5.1375-0.52091 6.599-1.9768 3.6938-0.65363 5.1436 4.6942 5.1436 3.3086 0 4.9064-0.41698 5.2746-1.3765zm-15.453-1.6704c0.18408-0.64453 0.33468-4.9688 0.33468-9.6094v-8.4375l-5.1562-0.47093c-2.8359-0.25902-6.1993-1.2082-7.4742-2.1094-1.2749-0.90114-3.03-1.6384-3.9002-1.6384-5.3078 0-15.048-12.522-17.502-22.5-0.67734-2.7545-1.1709-3.2346-3.0747-2.9906-1.2473 0.15984-4.0608 0.51872-6.2522 0.79753-7.121 0.90595-3.7418-2.5131 3.9009-3.9468 3.7951-0.71197 4.394-2.6182 1.3367-4.2545l-2.028-1.0854 2.1011-1.5848c3.0032-2.2653 4.0662-12.841 1.3803-13.733-0.97296-0.32306-3.9954-1.5976-6.7165-2.8323-5.6084-2.5448-6.8672-2.7115-8.4587-1.12-2.6143 2.6143-0.0952 4.7448 6.9946 5.9156 10.016 1.6541 9.5371 4.371-0.72752 4.1236-8.5009-0.20488-8.7149-0.11208-7.4446 3.2289 1.4014 3.686 0.34674 5.508-2.7896 4.8192-3.0427-0.66829-4.4257 0.8395-2.6892 2.9319 0.9486 1.143 2.3324 1.3047 6.7641 0.79035 3.9941-0.46356 5.3889-0.35118 4.9265 0.39694-0.35473 0.57397-1.2077 1.0436-1.8956 1.0436-3.5811 0-0.49042 9.1367 4.46 13.184 1.6504 1.3495 1.8257 1.9182 0.8857 2.874-4.0665 4.1348-0.67074 6.3911 6.4135 4.2615l4.1334-1.2425 0.17605 4.8919c0.15636 4.3445-0.18463 5.3133-3.0469 8.6572-4.3809 5.1181-2.1703 8.6235 5.4384 8.6235 1.408 0 1.7488 0.46291 1.3798 1.8741-0.68671 2.626 0.87342 3.2489 3.6238 1.4468 2.6943-1.7654 2.2219-3.3209-1.0086-3.3209-1.2282 0-2.4938-0.42188-2.8125-0.9375-0.31868-0.51563-1.3983-0.9375-2.3991-0.9375-1.1947 0-1.8197-0.64401-1.8197-1.875 0-2.1686 1.4992-2.3437 6.7066-0.78357 3.169 0.94946 3.7983 0.8789 4.8376-0.54254 4.7638-6.5149 8.9046 0.26624 4.7292 7.7449-2.54 4.5495-1.8813 6.7062 2.0481 6.7062 2.2972 0 2.5132-0.56839 3.7407-9.8438 0.75067-5.6722 1.463-7.04 2.4086-4.6253 1.0276 2.6242 0.98931 9.2711-0.0696 12.056-1.4572 3.8329-0.33997 5.2254 4.1925 5.2254 2.411 0 4.152-0.46871 4.3528-1.1719zm-48.368-59.689c-0.68397-1.1067 4.7-2.3148 6.1959-1.3903 0.7963 0.49214 0.59435 0.91069-0.68025 1.4098-2.5529 0.99971-4.8908 0.99144-5.5156-0.0195zm-149.58 46.385c0-0.74301-0.42188-1.6117-0.9375-1.9303s-0.9375-1.8201-0.9375-3.3366c0-1.5164-0.39698-2.7572-0.88217-2.7572-1.8142 0-1.9235 1.8779-0.32408 5.5697 1.6586 3.8285 3.0813 4.9617 3.0813 2.4544zm-6.5625-0.41691c0-0.45669-0.58846-1.9646-1.3077-3.3509-0.79702-1.5362-1.1149-3.9578-0.81406-6.2009 0.45214-3.371 0.30989-3.6803-1.6923-3.6803-1.7002 0-1.9359 0.25-1.0609 1.125 1.969 1.969 1.3738 6.0804-0.98438 6.7998-2.0084 0.61267-1.9635 0.70782 0.9375 1.987 1.6758 0.73896 3.0469 1.9752 3.0469 2.7471s0.42188 1.4036 0.9375 1.4036 0.9375-0.37365 0.9375-0.83033zm251.25-4.718c0-2.0203 0.22925-4.2707 0.50944-5.0009 0.35821-0.93349-1.9378-2.532-7.7344-5.3847-10.012-4.9272-9.2329-4.2665-8.0167-6.8018 3.2389-6.7518 4.3656-16.271 2.6526-22.41-0.66669-2.3892-0.55011-2.4864 2.9003-2.4186 4.8379 0.0951 15.314-1.3061 15.314-2.0483 0-4.4361-4.0916-5.3426-14.754-3.2686-3.8628 0.7514-7.7464-0.20509-7.7464-1.9078 0-2.0218 6.8713-3.8712 15.703-4.2264 2.1047-0.0847 1.2312-3.5426-1.3166-5.212-2.3895-1.5657-2.6516-1.5513-6.5876 0.36093-2.2545 1.0953-4.6151 1.9941-5.2458 1.9972-0.63074 3e-3 -2.307 0.61096-3.7249 1.3506-2.3575 1.2298-2.5781 1.1999-2.5781-0.34901 0-1.1943 1.9544-2.5678 6.6264-4.6568 4.9488-2.2128 6.5489-3.372 6.3201-4.5786-0.49649-2.6187-4.8045-2.5037-8.0348 0.21439-1.5675 1.319-4.1577 2.6597-5.7559 2.9793s-2.9059 0.93948-2.9059 1.3774c0 0.43794-1.2656 1.4507-2.8125 2.2506s-2.8125 1.8874-2.8125 2.4166 1.2656 1.4034 2.8125 1.9426 2.8125 1.3649 2.8125 1.8348c0 0.46987 1.3185 2.2216 2.93 3.8927 5.8079 6.0227 7.5428 13.142 5.3801 22.076-1.3488 5.5719-1.9878 6.2449-4.6015 4.8461-1.9044-1.0192-2.0418-0.9571-1.364 0.61628 1.3153 3.0532 1.6224 7.5988 0.55769 8.2568-2.6613 1.6448-1.0757 4.3515 2.4885 4.2478 8.1314-0.23651 11.806 1.7555 15.425 8.3611 2.1696 3.9603 3.5592 3.6642 3.5592-0.75815zm-263-2.3345c-0.35504-2.3676-1.0195-4.3047-1.4766-4.3047-1.2683 0-0.98968 6.4694 0.34082 7.9138 1.6792 1.8229 1.8628 1.2394 1.1358-3.6091zm176.21-3.0254c0.27-0.7036 0.0823-1.2793-0.41717-1.2793-0.91845 0-4.6581 3.3708-4.6581 4.1986 0 0.94631 4.6093-1.705 5.0752-2.9194zm41.8 0.59573c0-1.0312-0.42188-1.875-0.9375-1.875-0.51563 0-0.9375 0.84375-0.9375 1.875s0.42187 1.875 0.9375 1.875c0.51562 0 0.9375-0.84375 0.9375-1.875zm-134.52-4.6979c2.1479-2.3734 8.5084-2.0936 8.2979 0.36498-0.16351 1.9092 1.8653 1.9772 3.4115 0.11417 0.6419-0.77344 2.4088-1.4062 3.9264-1.4062 3.2032 0 6.3861-1.4835 6.3861-2.9765 0-0.56955 0.69874-1.5465 1.5528-2.1709 1.3458-0.9841 1.4083-1.709 0.46875-5.4404-0.5962-2.3677-1.084-6.4186-1.084-9.002 0-8.7315-0.83542-9.4718-10.697-9.4789-14.102-0.0103-34.526-4.2165-51.178-10.54-3.3516-1.2728-8.9154-2.6154-12.364-2.9837-3.4486-0.36825-8.9119-1.4694-12.141-2.447-3.2287-0.97757-6.8112-1.5412-7.9611-1.2526-1.6926 0.42482-2.004 0.19289-1.6351-1.2178 0.29737-1.1371-0.86084-3.2025-3.3335-5.9446-2.0841-2.3111-3.7952-4.5184-3.8024-4.9051-0.06506-3.4566-6.5757-5.6346-6.5757-2.1997 0 2.4669 5.2285 8.9966 7.2037 8.9966 0.67856 0 1.2338 0.79209 1.2338 1.7602s0.67656 2.3217 1.5035 3.008c1.0848 0.90026 1.37 2.2432 1.0241 4.8219-1.0909 8.1336 12.75 13.749 33.741 13.69 5.2521-0.0149 9.9605 0.22698 10.463 0.53755 0.50251 0.31057 5.2756 1.4305 10.607 2.4888 13.229 2.6259 16.724 3.7458 16.724 5.3578 0 1.0162-0.66173 1.2085-2.5781 0.7492-7.811-1.8722-10.692-2.2984-12.041-1.7811-0.82372 0.3161-4.6632-0.21356-8.5322-1.177-6.4837-1.6146-7.1221-1.632-8.1528-0.22248-0.84709 1.1585-1.5337 1.2967-2.8318 0.5703-0.94246-0.52743-3.4673-0.76129-5.6107-0.51969-2.4215 0.27293-4.3086-9.4e-4 -4.9837-0.72389-0.61695-0.66045-4.8606-1.4337-9.8189-1.789-4.8028-0.34423-11.316-1.505-14.473-2.5795-5.8878-2.0037-11.153-1.775-10.429 0.45319 0.2032 0.62552 2.1316 1.7571 4.2853 2.5146 3.3103 1.1643 3.9159 1.7752 3.9159 3.9502 0 2.4401 0.21953 2.5684 4.2554 2.4874 4.8343-0.097 5.864 0.47103 4.2905 2.367-1.1428 1.377 2.7426 3.1406 4.5111 2.0476 0.43079-0.26624 2.2189 0.49023 3.9737 1.681 2.9963 2.0333 8.2253 3.892 14.141 5.0266 1.418 0.27195 2.5781 1.0902 2.5781 1.8184 0 1.1112 0.45183 1.0903 2.8125-0.13048 2.7813-1.4383 2.8125-1.427 2.8125 1.0151 0 2.1717 0.2851 2.3979 2.3643 1.876 1.6572-0.41593 2.5284-0.16595 2.9128 0.83587 0.30166 0.78611 1.091 1.4293 1.7541 1.4293 1.7072 0 2.4052-2.3677 1.0986-3.7268-0.85184-0.88605-0.67905-1.0671 0.76925-0.8059 1.0273 0.18527 2.4214 1.4918 3.098 2.9035 1.4027 2.9266 1.832 3.0381 4.3539 1.1306 2.3188-1.7539 3.3364-1.7448 3.3364 0.0298 0 0.86593 0.87927 1.4062 2.2884 1.4062 1.2586 0 2.5492 0.42187 2.8678 0.9375 1.1101 1.7962 9.4083 1.0975 11.259-0.9479zm-0.92876-18.874c-2.4181-1.482 5.5619-3.5157 14.03-3.5756l5.6111-0.0397-3.5308 1.8924c-4.3562 2.3348-13.514 3.3142-16.111 1.7229zm51.076 19.655c7.1215-2.0217 13.702-4.999 15.858-7.1745 2.0479-2.0668 2.3712-2.1387 3.3846-0.75277 1.7295 2.3652 4.195 1.9208 4.195-0.75614 0-1.2586-0.37405-2.5196-0.83123-2.8022-0.45717-0.28254-1.0962-1.8895-1.42-3.571-1.084-5.6283-1.6264-5.8163-7.5447-2.6143-2.9631 1.6031-6.7172 4.187-8.3426 5.7419-4.2237 4.0408-7.7818 5.7705-9.7605 4.7447-2.376-1.2317-9.9548-2.1884-11.782-1.4873-2.2834 0.87623-1.9201 3.0942 0.70262 4.2892 1.2494 0.56926 2.5238 2.0399 2.8321 3.268 0.62824 2.5031 6.1205 2.9847 12.709 1.1143zm68.043-2.8208c-0.0522-1.4381 0.62574-2.2255 2.2693-2.6356l2.3438-0.58483-2.0878-1.1358c-1.6464-0.89571-2.4888-0.88544-3.9844 0.0486-2.5011 1.562-2.638 6.3584-0.18153 6.3584 1.1617 0 1.6911-0.66162 1.6406-2.0507zm-203.04-3.4374c0-1.5936-1.0026-3.7575-2.4794-5.3509l-2.4794-2.6753 0.69567 4.6478c1.0036 6.7048 4.2631 9.2879 4.2631 3.3784zm197.34-3.9522c0-2.3657-2.137-3.3869-4.8827-2.3333-1.279 0.4908-1.1785 0.90613 0.70386 2.9098 2.5973 2.7647 4.1788 2.5466 4.1788-0.57652zm24.216 1.5491c0.53408-1.3918-1.7656-2.7907-3.1654-1.9256-1.1418 0.70565-7e-3 3.2543 1.4499 3.2543 0.6631 0 1.4351-0.5979 1.7155-1.3287zm16.097-3.8276c0-0.94531-0.52734-1.8945-1.1719-2.1094-0.74219-0.24739-1.1719 0.52605-1.1719 2.1094s0.42968 2.3568 1.1719 2.1094c0.64454-0.21484 1.1719-1.1641 1.1719-2.1094zm-103.89-2.9286c0.35304-0.92001-0.0373-1.8701-0.98664-2.4014-2.9975-1.6775-0.52586-2.5964 3.0911-1.1492 6.5041 2.6024 20.757-4.7978 16.821-8.7336-0.75794-0.75794-1.7516-0.77803-3.5156-0.0711-13.067 5.2366-13.595 5.2943-24.027 2.6263-10.007-2.5593-9.9182 1.86 0.0966 4.817 5.0542 1.4924 5.3018 2.6366 0.6115 2.827-6.0294 0.2449-6.3324 0.30527-6.1631 1.2281 0.47978 2.616 13.102 3.3846 14.072 0.85681zm-123.25-1.5106c-1.5823-0.76229-2.4252-0.74575-3.2344 0.0635-0.83422 0.83421-0.32544 1.0793 2.14 1.031 3.0375-0.0596 3.1041-0.12621 1.0944-1.0944zm182.42 0.03286c1.3541-1.3541 1.5132-3.9131 0.19254-3.0969-1.3416 0.82917-3.0296 4.2219-2.1005 4.2219 0.43064 0 1.2892-0.50625 1.908-1.125zm48.392-2.2566c2.5801-0.99009 1.6064-2.2434-1.743-2.2434-3.3087 0-5.2125 1.3412-3.108 2.1897 1.7008 0.68572 3.162 0.70192 4.851 0.0538zm55.85-2.2188c3.0596-1.9344-7.4178-4.7122-17.773-4.7122-2.1055 0-6.2288-0.84375-9.1629-1.875-7.9404-2.7908-14.306-2.414-14.306 0.84697 0 1.9392 7.5768 3.3954 25.164 4.836 6.5272 0.53471 12.29 1.129 12.805 1.3206 1.4962 0.55603 1.7956 0.51795 3.2734-0.41639zm-69.902-0.85595c0.6124-0.99089-2.0747-3.4346-2.8853-2.624-0.78112 0.78113 0.34879 3.4553 1.46 3.4553 0.50137 0 1.1428-0.37407 1.4254-0.83127zm-17.278-4.9031c0-0.45549-1.0547-0.82816-2.3438-0.82816-2.2055 0-2.9982 0.90802-1.8207 2.0855 0.75415 0.75416 4.1645-0.27552 4.1645-1.2574zm-68.851-2.2046c1.0009-0.75703 2.9525-1.3898 4.3369-1.4062 7.7326-0.0916 10.664-5.9913 3.1079-6.2538-8.2734-0.28743-22.969-3.5262-22.969-5.0621 0-1.2985 3.5203-1.093 8.8209 0.51502 13.316 4.0397 21.994 0.0892 19.07-8.682-0.12891-0.38671-4.0568-0.70312-8.7286-0.70312-9.5192 0-20.626-4.1661-23.017-8.6335-0.63219-1.1813-1.711-2.1478-2.3973-2.1478-1.9025 0-1.498 1.3193 1.0959 3.5747 1.2891 1.1208 2.3438 2.645 2.3438 3.3871s0.89949 1.6348 1.9989 1.9837c1.5542 0.4933 1.7124 0.81146 0.71096 1.4304-0.73317 0.45313-1.6749 0.40898-2.1864-0.10249-2.9106-2.9106-3.8772-0.21775-1.8334 5.1082 0.47348 1.2338-0.18256 1.4933-3.7754 1.4933-5.018 0-6.1582 1.4575-3.8708 4.9484 0.86694 1.3231 1.227 2.9954 0.85422 3.967-0.58652 1.5284-0.20595 1.6214 4.2281 1.0332 4.9046-0.65061 7.6239 0.47458 7.6239 3.1546 0 3.0158 11.31 4.8731 14.586 2.3953zm156.96-1.6704c-0.0219-4.6604-1.127-5.7909-4.8126-4.9239-1.728 0.40649-7.1161 0.99511-11.974 1.308-5.2797 0.34014-8.9729 0.99653-9.1825 1.632-0.6332 1.92 2.4657 4.0599 5.16 3.5632 1.398-0.25772 4.4403-0.0792 6.7606 0.39672 2.3203 0.47591 6.4336 0.91151 9.1406 0.96801l4.9219 0.10272-0.0143-3.0469zm-106.09-1.4158c0.22753-1.5948-0.16702-2.0998-1.6406-2.0998-1.4593 0-1.9402 0.59797-1.9402 2.4125 0 3.0772 3.1363 2.8033 3.5808-0.3127zm36.212-2.2415-0.70981-3.1395-0.73141 2.6574c-0.86316 3.1361-0.10947 5.8821 1.2432 4.5295 0.52115-0.52115 0.60551-2.2451 0.19804-4.0474zm-220.74-1.0302c0.01762-0.86259-3.19-0.9363-4.0336-0.0927-0.33574 0.33573 0.11862 1.1435 1.0097 1.7951 1.5702 1.1482 2.9819 0.35339 3.0239-1.7024zm92.696-0.89918 5.9631 0.1993-0.35325-10.321c-0.3198-9.3431-0.19126-10.372 1.3571-10.863 3.4273-1.0878 1.5677-4.5662-2.6177-4.8964-5.0025-0.39461-19.275-4.436-23.669-6.702-1.9354-0.99816-6.8938-3.2518-11.019-5.0082s-10.453-5.0158-14.062-7.2434-8.884-5.1875-11.721-6.5777c-2.8374-1.3902-6.9906-4.0581-9.2293-5.9284-2.2387-1.8704-4.3963-3.4007-4.7946-3.4007s-1.8521-1.7044-3.2306-3.7874c-1.3785-2.0831-3.544-4.2602-4.8121-4.838s-2.3057-1.535-2.3057-2.1271c0-8.799-5.6125-3.6518-6.1609 5.65-0.23947 4.0625-0.84968 7.8006-1.356 8.3069-3.6339 3.6339 4.8844 10.469 24.422 19.597 4.915 2.2962 11.665 4.9042 15 5.7956 3.335 0.89142 9.4387 3.2089 13.564 5.15s8.9766 4.0025 10.781 4.581c6.5628 2.1038 14.502 5.6472 14.825 6.6167 0.42044 1.2613-2.3308 1.3107-3.1064 0.0558-0.31868-0.51563-1.4738-0.9375-2.5669-0.9375-2.3846 0-6.407-1.2608-15.415-4.8315-3.7024-1.4677-7.2111-2.6685-7.7969-2.6685-0.58587 0-2.448-1.0547-4.138-2.3438-3.6356-2.773-4.8238-2.9104-6.0804-0.70313-0.78449 1.378-1.2047 1.4494-2.6247 0.44602-3.1369-2.2164-11.572-5.8364-13.671-5.8664-1.1455-0.0164-2.9016-0.64922-3.9025-1.4062-1.0009-0.75704-2.6557-1.3764-3.6772-1.3764-2.6539 0-8.9813-3.0766-9.01-4.381-0.02535-1.1528-3.0254-4.3785-8.7089-9.364-3.2287-2.8322-7.2528-9.608-7.2528-12.212 0-1.5698-2.7775-1.6254-2.9163-0.0583-0.25824 2.9162 0.36358 6.0272 1.5862 7.9358 1.1971 1.8688 1.1426 2.1768-0.54491 3.0799-3.2362 1.732-2.3489 4.3721 1.6861 5.0173 3.0063 0.48073 3.8082 1.1295 5.147 4.1639 3.0785 6.9776 7.0072 11.924 10.463 13.174 4.4478 1.6084 4.2018 2.7865-0.65526 3.1379-5.028 0.36379-4.8899 1.8186 0.31566 3.3258 2.2084 0.63939 4.3173 1.6513 4.6865 2.2487 0.43131 0.69787 3.2182 1.0188 7.7955 0.89761 8.2668-0.2188 8.8393 0.51106 2.6703 3.4044-5.6337 2.6424-2.6059 3.2409 8.0374 1.5888 3.6204-0.56198 4.02-0.44174 3.75 1.1282-0.35066 2.0387 4.3629 3.0921 6.0932 1.3618 1.7485-1.7485 4.2358-1.1486 4.555 1.0986 0.31314 2.2049 2.143 2.5936 6.0884 1.2934 1.6544-0.54518 2.1005-0.26641 2.366 1.4783 0.19259 1.2657 0.87239 2.0296 1.6526 1.8572 6.0016-1.3266 6.3328-1.2943 6.8459 0.66787 0.41839 1.5999 1.1832 1.936 4.1416 1.8201 1.9957-0.0782 4.4613 0.28815 5.4792 0.81409 1.0179 0.52595 2.4363 0.7478 3.1519 0.493 0.71563-0.25482 1.7002 0.24982 2.188 1.1214 0.69344 1.2391 1.5341 1.4269 3.8551 0.86103 1.6326-0.39801 5.6517-0.63397 8.9314-0.52435zm-83.307-55.524c0-3.0433 1.5924-7.0923 2.7893-7.0923 1.0421 0 1.3144 5.4874 0.39165 7.8921-0.89718 2.338-3.1809 1.7638-3.1809-0.79979zm220.11 53.721c0.1701-0.88327-0.50513-1.7167-1.6289-2.0106-2.1921-0.57324-3.2804 0.62118-2.476 2.7175 0.69639 1.8148 3.7196 1.2942 4.1049-0.70686zm79.887 1.0614c2.0199 0.83668 3.1568 0.88132 4.0282 0.15816 0.73065-0.60637 6.9825-1.0691 15.702-1.1622 7.9686-0.085 16.595-0.53536 19.17-1.0006 3.2188-0.58165 5.5005-0.5068 7.3023 0.23954 2.2973 0.95157 2.9108 0.81296 4.9718-1.1233 9.1809-8.625-11.416-16.954-26.873-10.867-3.3114 1.3041-8.8925 2.6639-12.403 3.0218-7.3843 0.75291-10.192 3.1673-8.1401 7.0007 1.3882 2.5938 0.69439 3.2504-1.793 1.697-1.2081-0.7545-1.9663-2.2041-1.9663-3.7596 0-3.3962-1.1566-3.9052-5.115-2.2512-3.778 1.5786-3.8868 1.9397-1.8272 6.0683 1.2037 2.4128 1.752 2.7843 2.8116 1.9049 1.0047-0.83385 1.9826-0.81652 4.1305 0.0732zm-11.845-3.97c0.67489-0.43712 0.464-0.69401-0.5772-0.70313-1.1942-0.0104-1.611 0.6871-1.5319 2.5638 0.0833 1.9761 0.21815 2.1403 0.5772 0.70313 0.25765-1.0312 0.947-2.185 1.5319-2.5638zm-8.8087 0.62336c3.3737-3.3737-1.2432-5.5645-11.267-5.3464-9.2325 0.20092-9.6091 0.13733-6.5174-1.1006 1.8047-0.72257 5.3129-1.3459 7.796-1.3851 7.639-0.12068 10.546-3.1404 5.9321-6.1632-2.2312-1.462-8.8559-0.61791-18.951 2.4146-9.6602 2.9018-6.3809-1.0038 4.7541-5.662 12.066-5.0478 13.637-8.8765 2.8385-6.9193-2.8503 0.51662-5.1823 0.58928-5.1823 0.16146 0-0.42781 0.41706-0.77784 0.92678-0.77784 1.1227 0 4.6982-2.9638 4.6982-3.8945 0-5.6024-9.7115-4.976-15.689 1.0121-2.4568 2.4611-5.2053 4.736-6.1076 5.0554-2.4745 0.8758-2.0212 4.2563 0.73935 5.5141 1.3272 0.6047 2.1739 1.6214 1.9142 2.2983-0.25619 0.66763 0.57126 2.4464 1.8388 3.9527 1.2675 1.5064 2.3046 3.2143 2.3046 3.7955s1.0662 2.6677 2.3692 4.6368l2.3692 3.5802 12.17-0.13952c6.6935-0.0768 12.572-0.54145 13.063-1.0327zm-97.472-5.0377c0-0.94464-3.68-3.8032-4.8961-3.8032-1.1203 0-0.86434 2.3021 0.3961 3.5625 1.3346 1.3346 4.5 1.5039 4.5 0.24066zm-202.83-1.4713c0.29932-0.78001 0.11462-1.9402-0.41044-2.5781-0.52506-0.63797-1.2523-3.1595-1.6161-5.6035-0.85232-5.7254-2.599-4.7715-1.8515 1.011 1.1112 8.5956 2.4098 10.997 3.8781 7.1706zm192.03-3.2438c1.2994-1.7612 2.3626-4.1405 2.3626-5.2872 0-3.4869 1.0299-5.0508 3.3262-5.0508 1.2035 0 2.4649-0.4479 2.8033-0.99533s1.6913-1.4045 3.0066-1.9046c2.042-0.77637 2.1894-1.0762 1.0086-2.0516-2.7743-2.2918-4.9784-11.383-3.7521-15.476 3.0559-10.2-0.12534-13.642-6.7947-7.3521-4.2653 4.0227-4.5947 9.4446-1.0042 16.53 2.9608 5.8429 2.9862 7.5 0.11479 7.5-2.7744 0-3.8728-1.306-5.1652-6.1414-2.2827-8.5407-12.147-9.8221-12.264-1.593-0.0327 2.3118 0.88728 2.6923 2.5322 1.0474 1.6571-1.6571 4.1757-0.19154 3.8319 2.2297-0.19309 1.3598-1.0525 2.2204-2.4095 2.4132-3.4686 0.49262-2.4842 3.332 3.1344 9.041 6.1841 6.2837 6.0151 7.2346-0.69199 3.8923-7.6369-3.8056-11.875-2.2867-5.7236 2.0514 8.5261 6.013 11.912 6.2608 15.684 1.1474zm116.51 1.5791c1.679-1.2994-0.30927-3.4796-3.1732-3.4796-2.4344 0-3.08 2.524-1.1414 4.4626 1.0639 1.0639 1.9228 0.86818 4.3146-0.98294zm-74.016-0.43277c-0.21955-1.1478-1.5778-1.8314-4.5219-2.2759-2.3144-0.3494-5.3682-0.92593-6.7862-1.2812-1.6355-0.40973-2.6295-0.26314-2.7188 0.40092-0.4195 3.1227-0.21556 3.3806 2.4844 3.1414 1.5469-0.13703 4.0781 0.14311 5.625 0.62255 4.5457 1.4089 6.2693 1.2318 5.9174-0.60778zm-32.993-4.7425c-2.2479-2.2479-2.9355-0.5765-0.97485 2.3695 1.5082 2.2662 1.782 2.3782 2.0921 0.85594 0.19624-0.96329-0.30651-2.4147-1.1172-3.2254zm-39.633-5.3531c1.1115-2.5878 2.7507-5.728 3.6426-6.9784 1.897-2.6594 0.15768-5.6604-3.2807-5.6604-8.1653 0-21.31-15.376-21.31-24.928 0-3.3225-1.4416-4.9426-3.0059-3.3783-1.5589 1.5589 2.627 18.932 4.5615 18.932 1.7258 0 2.5484 1.896 1.3448 3.0996-0.79001 0.79001-1.6654 0.4097-3.425-1.4879-1.3001-1.4021-2.9795-2.5492-3.7321-2.5492-0.83454 0-1.3683-0.9143-1.3683-2.3438 0-1.4524-0.53178-2.3438-1.3983-2.3438-0.76907 0-1.9252-0.84375-2.5693-1.875-1.4035-2.2473-3.9993-2.569-3.164-0.39207 0.31298 0.8156 0.56905 2.0812 0.56905 2.8125 0 0.73126 0.56743 1.3296 1.261 1.3296 1.8092 0 4.0436 2.8583 4.5804 5.8594 0.30719 1.7174 0.0577 2.5781-0.74705 2.5781-1.4144 0-5.0943-4.4103-5.0943-6.1054 0-2.5679-2.6688-3.5794-5.1516-1.9527-3.9767 2.6057-2.2607 8.9435 2.9588 10.928 1.268 0.48211 2.0454 1.2974 1.7275 1.8118-0.31791 0.5144 0.51057 1.4313 1.8411 2.0375s2.6828 2.19 3.0052 3.5196c0.91303 3.7656 2.8845 6.0724 6.1833 7.2352l3.0294 1.0678-2.3438 0.9306c-2.4624 0.97769 0.34353 1.5342 12.188 2.417 7.3363 0.54685 7.5451 0.4486 9.6978-4.5632zm-14.854-5.7855c-4.6538-1.7948-8.2762-5.9157-5.2-5.9157 1.0553 0 1.9188 0.38061 1.9188 0.84578 0 1.2429 5.3772 2.9042 9.4001 2.9042 3.3476 0 6.2616 1.8382 4.9668 3.1331-1.07 1.07-7.1868 0.53621-11.086-0.9674zm66.344 10.397c0.30925-0.30926 0.20295-1.4694-0.23623-2.5781-0.43919-1.1087-1.0576-2.8247-1.3743-3.8132-0.79441-2.48-2.6237-0.54787-2.6237 2.7712 0 2.97 2.633 5.2213 4.2342 3.6202zm27.548-2.1827c0.6196-1.2428 1.7904-2.6311 2.6017-3.0852 3.095-1.7321 0.62289-5.1757-2.7786-3.8705-1.4793 0.56766-4.1838 6.0478-4.1838 8.4776 0 2.1061 3.0895 1.0278 4.3607-1.522zm-11.018-3.8464c2.3636-4.5346 2.5272-6.7833 0.46323-6.368-2.0644 0.41539-5.5281 6.627-4.781 8.574 0.95718 2.4944 2.1983 1.8602 4.3178-2.206zm21.953 1.7635c4.402-2.317 4.5028-4.5472 0.20572-4.5472-2.252 0-3.5459 0.55619-4.2188 1.8134-2.0186 3.7719-0.24924 4.9773 4.013 2.7338zm-29.904-5.1162c3.0575-1.1733 1.0463-4.1184-2.8125-4.1184-0.79321 0-1.3296 0.94549-1.3296 2.3438 0 2.3613 1.2348 2.8903 4.1421 1.7747zm-222.05-1.3298c2.3175-0.88113 2.4075-1.0962 1.0779-2.5781-0.79786-0.88922-1.7451-3.2035-2.105-5.1428-0.67443-3.6342-1.7888-5.118-2.7165-3.617-0.50592 0.81861 0.3724 12.299 0.94095 12.299 0.15079 0 1.412-0.4326 2.8027-0.96134zm258.22-3.7262c0.67691-1.2648 1.963-1.875 3.9519-1.875 3.3237 0 11.629-5.1343 12.497-7.726 0.76983-2.2974-0.24333-3.524-2.9106-3.524-1.2586 0-2.2884-0.38424-2.2884-0.85387 0-1.3084-8.2911-5.0279-9.863-4.4247-0.90218 0.3462-1.387-0.0473-1.387-1.1258 0-2.3789-1.8626-3.9081-4.7602-3.9081-1.3806 0-2.9777-0.5633-3.5491-1.2518-4.3184-5.2034-12.314-3.2583-12.317 2.9962-6.1e-4 1.3608-0.5826 5.5234-1.2933 9.2501-1.5778 8.2735-1.9608 7.9015 11.865 11.526 2.4625 0.64559 4.7022 1.5378 4.9772 1.9827 0.92047 1.4894 4.0622 0.82959 5.0768-1.0661zm-7.4192-3.3914c-1.0616-1.3497-1.6415-2.9317-1.2885-3.5156 7.5729-12.529 12.216-11.893 6.3767 0.87339-2.7029 5.9092-2.5719 5.8411-5.0881 2.6422zm-9.4558-4.5869c0-2.4716 5.0282-6.9662 5.445-4.8672 0.37149 1.8705-1.1104 4.0292-3.7273 5.4298-1.3286 0.71102-1.7177 0.58356-1.7177-0.56255zm-27.327 7.8867c3.152-1.0988 3.9096-3.5718 1.6648-5.4348-2.1141-1.7546-2.8186-10.196-1.0732-12.86 2.7689-4.2259-2.3172-8.045-6.8708-5.1592-1.707 1.0818-1.9419 15.215-0.34075 20.499 1.2882 4.2515 1.9956 4.5673 6.6201 2.9552zm-101.42-2.8754c1.8885-0.90105 2.7383-2.0735 2.9509-4.0711 0.55918-5.2546 3.0439-12.414 4.8873-14.082 2.3092-2.0898 0.81341-4.4392-2.3247-3.6516-10.393 2.6086-36.342-15.621-46.072-32.367-2.7078-4.6603-6.2026-9.089-9.1786-11.631-2.6432-2.2582-5.6479-5.577-6.677-7.3751-1.0291-1.7982-3.0364-5.0178-4.4605-7.1549-1.4241-2.137-3.9757-7.9973-5.6701-13.023-3.8359-11.377-5.0618-11.904-8.8604-3.806-4.33 9.2306-5.2059 12.515-3.9592 14.844 1.1191 2.0911 0.6615 4.6602-0.83011 4.6602-1.1118 0-4.8095-6.2104-4.8095-8.0777 0-0.78201-0.45674-1.1257-1.0273-0.77306-0.94989 0.58706-0.64426 5.6572 0.67675 11.227 0.26335 1.1103-0.34106 2.8221-1.4465 4.0966-1.3884 1.6008-1.6629 2.6301-1.0214 3.8289 0.48259 0.90172 0.62123 1.8957 0.30808 2.2089s-0.04017 1.207 0.60662 1.9863c1.453 1.7508 0.61386 4.2533-1.4262 4.2533-3.1004 0-0.58026 2.3687 3.8734 3.6406l4.6128 1.3174-3.6555 1.0402c-4.6798 1.3316-2.8189 3.3432 4.4248 4.7831 7.0344 1.3983 7.1833 3.7295 0.18226 2.8548-6.0368-0.75425-7.0244 0.87571-1.6395 2.7056 4.4214 1.5024 5.8729 3.2687 3.2498 3.9546-5.0055 1.309-0.14295 3.1412 8.3365 3.1412 7.3964 0 5.9322 2.0716-2.3411 3.3123-7.6817 1.1519-3.7281 3.2502 6.1241 3.2502 4.4239 0 4.5611 0.0788 3.5215 2.0214-0.91882 1.7168-0.76222 2.2624 1.0393 3.6214 1.1666 0.87999 1.8377 2.0586 1.4913 2.6191-1.233 1.9951 3.0137 2.9828 10.839 2.5211 6.5428-0.38604 7.3483-0.28714 4.9898 0.61268-5.8185 2.2199-5.0995 4.5419 1.4062 4.5419 4.5078 0 6.6637 1.1224 4.6027 2.3962-1.7523 1.083 1.0809 2.2612 5.4754 2.277 3.7668 0.0136 5.3684 1.2388 2.8125 2.1516-4.1885 1.4959 2.4854 2.3732 10.078 1.3248 2.5781-0.35599 4.0547-0.37357 3.2812-0.0391-1.5416 0.66673-2.7757 2.2081-2.7982 3.4947-7e-3 0.45314 2.095 0.54408 4.6732 0.20208 4.1738-0.55368 4.6875-0.42993 4.6875 1.1292 0 3.1985 2.4151 3.2075 9.0664 0.0339zm-1.0976-14.605c-5.4994-1.0306-21.303-7.1482-23.11-8.946-0.69591-0.69235-4.4294-3.0786-8.2965-5.3027-3.8672-2.2242-8.7188-5.6261-10.781-7.5598-2.0625-1.9337-5.6063-4.8328-7.875-6.4425-3.641-2.5832-3.859-2.9266-1.8578-2.9266 1.2638 0 4.2757 1.6597 6.8052 3.75 2.4959 2.0625 4.8602 3.75 5.2539 3.75 0.39376 0 3.3649 2.1175 6.6026 4.7056 6.644 5.311 19.409 11.675 30.195 15.055 3.9868 1.2491 7.2564 2.5424 7.2656 2.8739 0.0254 0.91148-2.0957 1.4382-4.2019 1.0435zm-65.234-40.78c-7.607-9.4444-10.18-13.327-9.3699-14.137 1.3839-1.3839 2.7188 0.0597 7.2221 7.8103 2.3518 4.0475 4.8692 7.5868 5.5944 7.8651s1.3184 0.94104 1.3184 1.4728c0 1.9174-1.6202 0.8937-4.765-3.0107zm185.81 53.431c0.061-0.64453-0.01-1.5938-0.15753-2.1094-0.1477-0.51563-0.36374-2.2763-0.48009-3.9126-0.33725-4.7428-2.5918-6.895-3.5123-3.353-0.23451 0.90235-0.37091-0.13086-0.30312-2.296 0.0995-3.1786 0.50786-4.0341 2.1206-4.4429 6.0118-1.5236 2.5531-7.0892-4.4055-7.0892-6.3164 0-9.9433 14.311-5.6568 22.32 1.2836 2.3985 12.178 3.1745 12.395 0.88289zm-61.236-0.89062c2.0361-2.0361 1.1884-3.5449-3.7969-6.7583-9.253-5.9642-10.508-8.1358-13.426-23.233-1.8366-9.5035-3.2863-10.819-6.019-5.4626-2.064 4.0458-1.4712 7.6924 1.4315 8.8062 1.2462 0.4782 1.3495 0.88979 0.48506 1.9314-0.85776 1.0335-0.66525 2.1731 0.87818 5.1985 1.0872 2.1311 1.744 4.608 1.4596 5.5041-0.55344 1.7437 5.0486 7.7915 8.2646 8.9222 1.3474 0.47376 1.5054 0.9042 0.69156 1.8847-2.4246 2.9215 7.2298 6.0082 10.031 3.207zm5.8351-7.1423 2.1054-1.7048-4.2832-4.0145c-4.7368-4.4397-7.2198-8.8442-7.2198-12.807 0-2.9775-1.3871-7.7412-4.5507-15.628-0.57844-1.4421-1.7659-2.5838-2.6948-2.5909-0.9134-7e-3 -2.5554-0.25293-3.649-0.54642-2.6884-0.72153-3.682 3.1096-1.7614 6.7919 0.76691 1.4705 1.4034 3.5173 1.4145 4.5486 0.036 3.3535 1.3882 4.4728 4.5618 3.7757 2.6764-0.58785 2.9296-0.43926 2.9296 1.7195 0 2.7492-1.4324 4.0416-2.2161 1.9994-0.62701-1.634-3.0139-1.8609-3.9329-0.37398-0.34906 0.5648-0.19584 1.9359 0.34049 3.0469s1.2225 3.1623 1.5248 4.5585c0.34784 1.6066 2.0959 3.6024 4.7616 5.4364 2.3166 1.5939 5.3277 3.932 6.6915 5.1958 2.9676 2.7503 3.2765 2.781 5.9784 0.59311zm9.796-6.9195c2.3341-1.134 4.2438-2.3657 4.2438-2.7372s2.1044-1.3743 4.6765-2.2286c5.6404-1.8734 6.0872-2.4472 3.8094-4.892-4.6131-4.9516-7.4685-14.207-8.3258-26.987l-0.62885-9.375-2.9846-0.28913c-3.7762-0.36582-6.5641 3.3328-3.1793 4.2179 2.4329 0.63622 2.4483 1.419 0.0701 3.5712-3.2307 2.9238-1.5839 20.264 2.613 27.513 1.9466 3.3624 2.1295 4.221 1.0451 4.9075-2.6565 1.6819-5.533-0.67678-5.533-4.537 0-1.3482-0.8089-5.4314-1.7976-9.0737s-2.0769-9.47-2.4184-12.95c-0.68562-6.9888-1.542-7.6218-6.7237-4.9698-1.4598 0.74708-3.3924 1.5776-4.2947 1.8456-2.3711 0.70419-2.0273 2.9276 1.1719 7.5773 3.1564 4.5876 3.4526 5.6025 1.4062 4.8172-1.6913-0.64899-1.7044-0.46236-0.31322 4.449 0.60117 2.1223 2.3612 5.2193 3.9112 6.8822 2.5131 2.6962 2.6991 3.2847 1.7183 5.4373-2.4152 5.3009 5.287 9.8561 11.534 6.8212zm79.028-6.3757c0.69499-6.4424 1.4607-8.7266 3.8565-11.504 2.9357-3.4038 4.5871-6.3083 7.8789-13.857 1.2484-2.863 4.2628-7.4495 6.6987-10.192 4.785-5.3876 4.6876-7.0428-0.35506-6.0343-2.0561 0.41121-3.6282 1.5276-4.6289 3.287-2.1688 3.8131-2.9718 3.3038-2.3175-1.4697l0.56826-4.1459-3.6331-1.0878c-6.1036-1.8276-10.137-0.97463-10.503 2.2208-0.17784 1.5556-0.97614 2.8599-1.898 3.1009-1.7426 0.4557-3.8888 6.2258-3.8888 10.455 0 1.9455-0.64033 2.9685-2.3438 3.7447-1.2891 0.58734-2.3438 1.6646-2.3438 2.3939s-0.6619 1.58-1.4709 1.8905c-0.94051 0.3609-1.2682 1.203-0.90886 2.3352 0.4188 1.3195 1.3e-4 1.9118-1.6429 2.3242-3.9449 0.9901-2.8387 11.828 1.3829 13.55 1.7097 0.69714 5.0069 2.2708 7.3272 3.4969 5.292 2.7966 7.8824 2.6367 8.2216-0.50734zm-56.398-2.9816c0.84296-1.3639 0.54879-9.0436-0.48439-12.646-0.47115-1.6428-0.29868-4.4533 0.45073-7.3448 4.8201-18.598-2.9225-32.628-9.4217-17.074-0.77109 1.8455-1.7884 3.5942-2.2606 3.8861-1.34 0.82815 0.41208 15.535 1.8507 15.535 0.44418 0 0.54961 1.2901 0.23426 2.8668-0.47862 2.3931-0.24238 2.9533 1.4297 3.3906 2.0371 0.53272 2.7008 2.5757 1.1485 3.5351-0.50511 0.31217-0.44699 1.7724 0.14213 3.5709 0.54817 1.6736 1.1304 3.5702 1.2939 4.2147 0.37697 1.4865 4.7073 1.5368 5.6168 0.0652zm9.3144-12.018c0.24014-11.916 1.673-24.664 3.2482-28.899 1.5504-4.1686 0.29435-5.2346-3.7619-3.1926-7.5726 3.8123-9.0966 43.33-1.6283 42.223 1.8099-0.26817 1.9573-0.96527 2.142-10.132zm-98.092 5.2516c1.9186-2.0512 2.107-2.7653 1.2346-4.68-1.3948-3.0612-0.82719-3.3841 5.9492-3.3841 6.5183 0 17.383-3.4442 15.21-4.822-2.0206-1.2816-6.5894-0.90148-8.3535 0.69506-2.0051 1.8146-4.3091 0.89625-2.6791-1.0678 0.8409-1.0132 0.41353-1.553-2.0638-2.6068-15.961-6.7892-36.891-39.509-42.442-66.349-1.2878-6.2271-3.3987-13.501-4.6909-16.164-1.2922-2.6629-2.9087-7.0565-3.5923-9.7636-2.6206-10.377-11.842-5.0248-10.633 6.1723 1.0991 10.185 1.3772 13.734 0.89392 11.406-0.26764-1.2891-1.0953-3.0256-1.8393-3.8591-0.74398-0.83343-1.7816-4.1787-2.3058-7.4339-1.2833-7.9685-1.7856-8.7659-4.3778-6.9503-1.6029 1.1227-1.9252 2.0342-1.4894 4.213 0.43602 2.1801 0.22334 2.7803-0.98524 2.7803-1.1842 0-1.4022 0.55419-0.94103 2.3917 0.426 1.6973 0.12456 2.7395-1.0383 3.5898-1.3558 0.99136-1.4488 1.5528-0.53905 3.2527 1.2268 2.2922 0.65721 3.8908-1.3862 3.8908-1.821 0-1.7804 5.0616 0.05533 6.8973 1.6067 1.6067 1.8549 3.4152 0.46875 3.4152-1.3782 0-1.1453 3.7463 0.23438 3.7708 0.64453 0.0114 2.2266 0.87852 3.5156 1.9268l2.3438 1.9059-4.9219-0.60851c-4.9989-0.61804-7.5108 1.6375-3.2812 2.9465 0.90234 0.27927 2.327 0.86998 3.1658 1.3127 0.83887 0.44272 3.05 1.091 4.9137 1.4406 5.0963 0.95608 3.0517 2.5614-2.3212 1.8224-5.8367-0.80275-6.1357 0.82269-0.58874 3.2004 5.5209 2.3665 8.0286 5.3076 3.7183 4.361-4.0756-0.89517-4.0641 1.2311 0.01928 3.5562l3.0359 1.7286-2.7849 1.4591-2.7849 1.4591 3.7274 1.6698c2.0501 0.91838 4.4657 1.8964 5.368 2.1734 2.3185 0.71175 2.0719 3.375-0.3125 3.375-3.3517 0-1.4478 2.2618 3.2283 3.8352 3.8086 1.2815 4.2288 1.6606 2.985 2.6929-2.6751 2.2202 2.9754 6.5969 8.5168 6.5969 1.1618 0 2.3731 0.42187 2.6917 0.9375 0.35758 0.57858-1.2663 0.9375-4.2415 0.9375-5.5568 0-5.9245 1.4081-1.0191 3.9023 4.0805 2.0748 4.3128 2.3844 2.9877 3.9811-2.0543 2.4753 2.5604 4.3534 12.238 4.9804 9.1683 0.59399 9.2424 1.9482 0.11334 2.0704-3.5338 0.0473-4.9219 0.43165-4.9219 1.3628 0 1.738 2.9534 2.4249 10.492 2.4403 6.8982 0.0141 10.076 1.8447 3.3919 1.9537-2.2218 0.0362-4.874 0.39185-5.8938 0.79026-2.6611 1.0397 0.90497 2.8938 5.5657 2.8938 2.7031 0 3.5369 0.44923 4.2333 2.2808 1.5823 4.1618 7.889 3.7567 12.132-0.77923zm-0.85783-14.965c0-0.8558 0.77212-1.1286 2.3438-0.8282 1.2891 0.24642 2.3438 0.82072 2.3438 1.2762s-1.0547 0.82821-2.3438 0.82821c-1.3522 0-2.3438-0.53992-2.3438-1.2762zm-32.344-3.4112c-2.6229-0.66742-2.5402-0.72314 1.2272-0.82658 2.479-0.0681 3.8159 0.25127 3.4603 0.82658-0.63591 1.0289-0.64393 1.0289-4.6875 0zm2.4076-19.598c-1.0664-1.4976-1.9388-3.2015-1.9388-3.7865 0-1.3731 3.1688 1.6622 4.5934 4.4 1.5966 3.0682-0.35387 2.6175-2.6545-0.61347zm-6.6683-12.28c-4.8237-8.73-8.3955-18.852-8.3955-23.793 0-3.4167 1.0551-2.3728 2.7302 2.7014 0.68089 2.0625 2.6924 7.6771 4.4699 12.477 3.1387 8.4751 3.8162 13.358 1.1954 8.6144zm-11.521-33.435c-0.34375-0.34375-0.58874-1.7148-0.54442-3.0469 0.07913-2.3781 0.09552-2.3718 0.9065 0.3435 0.85218 2.8533 0.72646 3.7919-0.36208 2.7034zm170 84.082c0-3.4746 2.2559-12.044 5.1877-19.707 0.69048-1.8047 1.5146-5.2555 1.8314-7.6684 0.31679-2.4129 1.4392-5.4845 2.4942-6.8258 1.5439-1.9628 1.6952-2.7074 0.77516-3.816-1.6941-2.0413-2.8376-1.7081-5.729 1.6695l-2.6083 3.0469-0.0381-3.0763c-0.0471-3.7982-2.2148-4.8582-5.5758-2.7264-1.3371 0.84813-3.5856 2.0126-4.9966 2.5878-1.8298 0.74585-2.8453 2.0847-3.5411 4.6688-0.53657 1.9927-1.3964 3.8832-1.9107 4.201-0.54822 0.33881-0.69227 2.4083-0.34819 5.0021 0.44976 3.3905 0.2454 4.7076-0.87464 5.6372-0.99447 0.82533-1.2872 2.0849-0.91587 3.9414 0.30013 1.5006 0.11852 3.2568-0.40357 3.9026-5.7899 7.1619-2.051 12.86 8.4502 12.879l8.2031 0.01435v-3.7303zm0.0285-29.504c-0.0208-2.0169 0.25161-2.4855 1.0061-1.731 0.74152 0.74152 0.7496 1.5251 0.0285 2.7656-0.88202 1.5175-1.0096 1.3898-1.0346-1.0346zm-229.69 27.566c0.84178-1.5729 0.63653-2.3303-1.1389-4.2026-2.4888-2.6246-4.0762-2.9225-4.8485-0.91002-0.2968 0.77344-0.22348 1.4062 0.16291 1.4062 0.3864 0 1.1803 1.2656 1.7641 2.8125 1.239 3.2825 2.6193 3.5864 4.0603 0.89382zm-9.4218-5.0422c-1.261-1.261-2.1988 0.0162-1.4482 1.9723 0.53859 1.4035 0.76375 1.4465 1.483 0.28264 0.51152-0.82765 0.49771-1.7224-0.03481-2.255zm18.305-5.2266c0-2.0332-3.6575-1.7531-4.0549 0.31051-0.25639 1.3313 0.16171 1.647 1.8622 1.4062 1.206-0.17079 2.1928-0.94332 2.1928-1.7168zm128.12-9.0062c8.4886-4.316-3.4039-9.5182-13.415-5.8681-6.3183 2.3038-7.8049 5.1834-2.207 4.275 2.5877-0.41993 3.4776-0.16285 4.2167 1.2181 1.5714 2.9363 6.0762 3.0844 11.405 0.37508zm-11.636-8.5164c2.0258-0.87454 3.0469-1.9625 3.0469-3.2466 0-1.4856 0.37867-1.767 1.6406-1.2194 0.90235 0.39156 3.0441 0.90851 4.7595 1.1488 1.7254 0.24167 3.3703 1.1203 3.6816 1.9665 1.1905 3.2361 7.3412 4.129 10.016 1.4541 2.035-2.035 1.0224-3.2057-2.773-3.2057-2.8802 0-7.0124-2.782-7.0124-4.721 0-0.3396-0.79295-0.99833-1.7621-1.4638-2.781-1.3358-12.117-12.563-14.736-17.721-1.309-2.5781-3.6191-7.1331-5.1335-10.122-4.7036-9.2835-7.5019-22.599-9.3001-44.253-0.471-5.6719-1.4941-13.688-2.2735-17.812s-1.4818-10.875-1.5608-15c-0.0899-4.6945-0.38932-6.6233-0.80045-5.1562-1.4965 5.34-4.1912 10.308-5.8826 10.844-2.7542 0.87416-5.4059 6.0097-5.5341 10.718l-0.11487 4.2188-1.2049-4.6875c-0.66268-2.5781-1.2454-6.1889-1.2949-8.0239-0.12561-4.6564-2.5009-7.6883-4.1075-5.2427-8.6155 13.114-8.4401 12.689-7.801 18.927 0.33858 3.3047 0.18463 6.9462-0.35348 8.3616-0.68088 1.7909-0.63196 3.0925 0.17121 4.5553 0.61847 1.1264 1.0068 3.0232 0.86299 4.2151-0.16452 1.3634 0.63539 2.9983 2.1569 4.4084 1.3962 1.2939 2.4184 3.2643 2.4184 4.6614 0 1.4531 1.1238 3.5187 2.8125 5.1694 3.4456 3.3682 3.515 4.3079 0.37619 5.0957l-2.4363 0.61147 2.4363 2.2579c1.5966 1.4797 2.4363 3.2427 2.4363 5.1152 0 1.5715 0.40703 2.8573 0.90452 2.8573 0.49748 0 1.3903 0.90772 1.9841 2.0172 0.95773 1.7895 0.88211 1.9346-0.67015 1.2857-6.7102-2.8052-8.2938-0.18079-2.2888 3.7931 4.9257 3.2596 6.3735 6.5239 1.8105 4.0818-1.0376-0.55534-2.5497-0.75526-3.36-0.44429-1.9842 0.76141 1.3773 4.3995 6.5618 7.1019 6.3555 3.3127 7.1163 4.6646 2.6251 4.6646-8.3229 0-1.7187 4.8534 12.393 9.1076 3.3597 1.0128 0.9854 2.6124-3.4025 2.2923-8.369-0.61052-3.7068 3.9771 5.5888 5.4994 3.0304 0.49627 5.8511 0.90475 6.2682 0.90774 1.7685 0.0127-0.5364 1.7856-3.0346 2.3343-2.8907 0.63489-4.4663 2.8538-2.593 3.6516 2.1927 0.9339 11.482 0.29021 14.479-1.0032zm-9.362-15.524c-5.7794-6.6826-9.9686-13.565-11.227-18.445-2.9792-11.555-3.63-14.894-5.3127-27.258-0.91694-6.737-3.1829-16.204-6.0799-25.401-0.74618-2.3689-1.0549-4.7955-0.68595-5.3924 0.37473-0.60631 1.4042 1.5015 2.3327 4.7758 0.91406 3.2236 2.0106 6.7049 2.4367 7.7361 2.1848 5.2873 2.0514 4.6657 4.5257 21.094 1.0391 6.8993 4.2134 19.282 6.3481 24.764 1.1807 3.0317 5.9234 10.374 14.326 22.179 3.2551 4.5732-1.9323 1.4187-6.6638-4.0523zm-114.86-0.0698c-0.52015-0.93125-2.8575 3.3628-3.0947 5.6853-0.42483 4.1604 0.26589 4.0754 1.8259-0.22483 0.93528-2.5781 1.5062-5.0353 1.2688-5.4604zm168.98 7.6245c3.2974-0.0411 4.341-0.2387 2.522-0.47752-2.7333-0.35887-3.0684-0.70698-2.8125-2.9219 0.22768-1.9707 0.72879-2.4542 2.3168-2.2353 1.1145 0.15359 2.2815-0.13367 2.5934-0.63834 0.92283-1.4932-0.99861-2.0675-3.6036-1.077-1.9264 0.73242-2.4224 0.6378-2.4224-0.46204 0-0.76068 0.39345-1.383 0.87432-1.383 2.7402 0 1.9674-4.0781-1.2801-6.7549-8.913-7.3468-14.14-22.439-16.005-46.214-0.32364-4.125-1.176-11.508-1.8941-16.406-3.126-21.323-2.7057-40.721 1.0391-47.963 1.1179-2.1617 1.1409-2.6623 0.12271-2.6623-1.2365 0-4.9111 4.3136-6.7883 7.9688-0.52964 1.0312-2.5771 2.6371-4.55 3.5686l-3.587 1.6936 0.5013 7.2126c0.27571 3.967 0.915 9.1111 1.4206 11.431 2.5348 11.632 3.1376 15.191 3.8899 22.969 1.0854 11.221 3.302 26.904 4.7038 33.281 0.62337 2.8359 1.4369 6.8438 1.8078 8.9062 0.37093 2.0625 2.0122 5.7096 3.6473 8.1047s2.9729 4.7752 2.9729 5.2892 1.9375 3.0895 4.3056 5.7234c5.7298 6.3728 3.0037 6.3378-3.2432-0.0417-8.5148-8.6956-11.754-19.461-14.201-47.201-0.59131-6.7031-1.6486-14.93-2.3495-18.281-0.70094-3.3516-1.5317-7.3594-1.8462-8.9062-0.31448-1.5469-1.0012-4.9219-1.5261-7.5-2.1734-10.675-2.9682-17.292-2.9562-24.609 0.01137-6.9367-0.16826-7.7344-1.7417-7.7344-0.96493 0-1.7544 0.4027-1.7544 0.89489 0 1.7925-5.1812 6.083-6.9874 5.7862-1.5728-0.2585-1.6572-0.09144-0.59843 1.1843 2.0275 2.443 0.45423 5.4941-5.0367 9.7678-3.8066 2.9627-5.19 4.6573-5.19 6.3575 0 1.275-0.60553 2.5505-1.3456 2.8345-1.1203 0.42989-1.0424 1.0137 0.46524 3.4862 1.2473 2.0456 1.8184 4.7204 1.8352 8.5948 0.0179 4.1314 0.51115 6.2473 1.8577 7.9688 2.215 2.8317 2.3298 3.75 0.46875 3.75-0.77344 0-1.4062 0.44961-1.4062 0.99913 0 1.8799 1.9397 4.6259 3.2676 4.6259 0.72967 0 1.664 0.57095 2.0764 1.2688 0.41234 0.69783 1.3825 1.5083 2.156 1.801 1.3903 0.52616-1.9043 1.0812-4.4531 0.75021-1.4016-0.182-1.576 2.3821-0.21908 3.2207 0.52403 0.32387 0.71773 0.96919 0.43044 1.434-1.1979 1.9383 4.7188 9.4854 8.9226 11.381 1.0831 0.48847 0.97525 0.6503-0.46203 0.69317-1.0312 0.0307-3.9844-1.6201-6.5625-3.6686-3.6797-2.9238-4.7572-3.4017-5.0119-2.223-0.40304 1.8652 7.6042 10.195 12.043 12.528 2.7507 1.4457 3.011 1.8309 1.6097 2.3819-1.128 0.44355-3.3382-0.44928-6.7969-2.7457-2.9236-1.9412-5.1192-2.8955-5.1112-2.2216 0.0259 2.167 2.4602 8.2384 3.0619 7.6367 0.32621-0.32621 1.3496-0.2878 2.2742 0.0853 1.5281 0.61673 1.4929 0.7511-0.38692 1.4766-2.501 0.96519-0.90144 7.3431 2.8151 11.224 1.136 1.1863 2.9092 3.8269 3.9404 5.8679 1.4317 2.8336 3.2629 4.4442 7.745 6.8123 4.8152 2.544 5.5312 3.2089 3.9844 3.6998-2.2422 0.71164-2.3903 1.6988-0.49135 3.2747 1.786 1.4823 4.2264 0.56174 4.245-1.6013 0.0119-1.388 0.16091-1.4384 0.88205-0.2982 0.47722 0.75451 2.4747 1.8749 4.4388 2.4897 3.2324 1.0119 3.371 1.1811 1.4617 1.7844-6.1602 1.9464 0.24283 5.0598 9.1406 4.4446 2.8359-0.19606 7.6875-0.38805 10.781-0.4266zm-41.611-33.001c-1.2298-0.68169-1.8602-1.4717-1.4009-1.7556 1.3955-0.86244 5.8218 0.35777 6.357 1.7524 0.63948 1.6665-1.9524 1.6681-4.9561 3e-3zm-11.88-50.649c-1.0001-0.73128-1.5896-1.5583-1.3101-1.8378 0.86745-0.86744 4.4885 0.46969 5.0196 1.8535 0.65107 1.6966-1.3794 1.688-3.7094-0.01573zm179.49 68.49c0.50457-1.618 1.1405-5.3477 1.4132-8.2881 0.61223-6.6017 2.6317-11.6 6.1731-15.279 3.2967-3.4246 4.6975-6.919 4.6975-11.719 0-5.1713 1.3814-8.1341 4.5584-9.777 4.8778-2.5224 7.4781-6.1605 4.4032-6.1605-2.9317 0-2.2097-1.9262 2.3346-6.2288 2.6144-2.4754 6.0795-6.9884 7.7001-10.029s4.3528-6.6382 6.0716-7.9947c5.1715-4.0815 8.9644-10.745 8.1925-14.392-2.8649-13.54-28.573-13.739-28.573-0.22141 0 0.84662-0.84375 2.612-1.875 3.923-1.0312 1.311-1.875 3.189-1.875 4.1733 0 1.1776-0.55457 1.6955-1.6215 1.5142-1.2452-0.21154-1.7466 0.59482-2.1607 3.4745-0.29658 2.0625-0.99131 4.5938-1.5439 5.625-0.55255 1.0312-1.2935 4.8281-1.6466 8.4375-0.83406 8.5261-1.2934 9.9472-3.1142 9.6342-1.7108-0.29415-2.8013 2.6078-2.9447 7.8361-0.0693 2.526-0.69141 3.7996-2.4042 4.9219-4.8293 3.1643-4.9076 2.0903-0.94871-13.017 1.2161-4.6406 2.6528-10.547 3.1928-13.125 3.8412-18.339 5.1902-23.21 8.1082-29.277 1.8131-3.7695 3.0408-7.2673 2.7284-7.7729-1.039-1.6811-3.0758-0.95182-5.5484 1.9867-2.7152 3.2268-5.8011 3.1615-4.9469-0.10477 0.26804-1.025 0.10496-1.8636-0.36239-1.8636s-0.84973-1.0298-0.84973-2.2884c0-3.2997-1.7242-3.8834-2.3534-0.7968-0.29339 1.4391-1.1495 3.8108-1.9025 5.2706-0.75299 1.4598-1.3881 4.2019-1.4114 6.0938-0.0233 1.8918-0.60262 4.7053-1.2875 6.2522l-1.2452 2.8125-0.71491-2.6807c-1.1088-4.1575 0.12401-14.559 2.4398-20.585l2.0955-5.453-2.911-2.911c-2.4582-2.4582-3.1376-2.7229-4.3677-1.702-0.80122 0.66495-2.2664 0.99728-3.2559 0.73851-1.2208-0.31924-1.9476 0.09726-2.261 1.2956-0.26144 0.99977-1.2895 1.7661-2.3693 1.7661-2.3901 0-3.4349 1.5741-2.107 3.1742 1.3958 1.6818 0.33582 2.4508-3.3781 2.4508-2.1495 0-3.3465 0.52267-3.7574 1.6406-0.33166 0.90234-1.1622 1.978-1.8456 2.3903-0.68341 0.41234-1.2426 1.4338-1.2426 2.2699s-0.59766 2.1863-1.3281 3.0003c-2.7418 3.0555-5.1855 11.419-4.595 15.727 0.42464 3.0981 0.26519 4.0544-0.64114 3.8449-0.69399-0.16044-1.5829 1.1096-2.0929 2.9903-0.79608 2.9354-1.0082 3.1029-2.0774 1.6406-2.7179-3.717-4.553-0.68278-2.0117 3.3263 2.2786 3.5948 2.8314 9.7295 0.97062 10.771-1.2269 0.68659-1.4619 1.6344-1.009 4.0691 0.3247 1.7457 0.83565 4.8615 1.1354 6.924l0.54506 3.75-1.927-2.3438c-1.0598-1.2891-1.9364-2.826-1.9478-3.4153-0.0226-1.1628-2.8052-2.5503-3.5736-1.7819-0.25953 0.25953 0.45581 3.1171 1.5896 6.3502 3.3397 9.5231 3.4042 10.097 1.1349 10.097-2.2148 0-2.5802 2.0605-1.07 6.0327 0.7441 1.9572 0.6365 2.4048-0.57805 2.4048-1.7042 0-1.6407 0.48702 1.5272 11.719 3.126 11.083 3.446 11.719 5.8976 11.719 1.197 0 2.6404-0.46406 3.2076-1.0312 0.75-0.75 1.5842-0.47834 3.0586 0.99609 3.6933 3.6933 5.5733 0.84572 8.178-12.387 0.27912-1.418 0.88147-2.5781 1.3386-2.5781 0.45709 0 0.83109-1.0751 0.83109-2.389 0-1.314 0.84375-4.1354 1.875-6.2698s1.875-4.8213 1.875-5.9707c0-1.1495 0.87942-4.1288 1.9543-6.6208 2.6406-6.1221 4.1374-10.792 5.9592-18.593 0.84292-3.6094 2.1111-8.8828 2.8181-11.719l1.2855-5.1562 0.0852 5.2031c0.0469 2.8617-0.29579 5.6039-0.76143 6.0938-0.46563 0.48984-1.0519 2.7891-1.3029 5.1094-0.25096 2.3203-0.88988 5.6953-1.4198 7.5-0.52995 1.8047-1.8386 6.2344-2.908 9.8438s-3.3573 9.5156-5.0841 13.125c-5.4023 11.292-8.0953 24.844-4.9368 24.844 0.86435 0 1.4983 0.77937 1.4983 1.842 0 1.553 2.4246 3.783 4.1131 3.783 0.90446 0 3.1591-6.0623 4.2957-11.55 2.9812-14.394 13.154-27.498 13.154-16.943 0 3.1031-1.1525 4.171-2.3719 2.1979-2.1721-3.5145-5.6612 7.0809-4.7855 14.532 0.32805 2.7912 0.21666 6.0739-0.24754 7.2949-1.5804 4.1569-0.22896 7.5137 2.8435 7.0628 2.9779-0.43706 3.3697 0.64246 1.2504 3.4445-1.3719 1.8138-1.92 9.0429-0.77261 10.19 0.66165 0.66164 6.2708-9.9901 7.7374-14.693zm-95.718 7.6851c0.17038-0.8991-0.48476-1.8082-1.5457-2.145-9.879-3.1355-15.249-30.688-12.138-62.272 1.081-10.972 1.026-12.143-1.0131-21.562-3.2479-15.004-3.7164-18.994-2.6008-22.148l0.99474-2.8125 0.67854 3.75c0.37319 2.0625 1.4312 7.5469 2.3511 12.188 1.4102 7.1139 1.6781 13.658 1.7079 41.719l0.0354 33.281 2.6058 4.3592c3.6239 6.0624 10.539 12.298 12.898 11.63 1.0118-0.28638 2.6334-0.7442 3.6036-1.0174 1.073-0.30214 1.9795 0.0651 2.3143 0.9375 0.30269 0.78881 1.6291 1.4342 2.9476 1.4342h2.3972l-1.5581-3.0469c-0.85695-1.6758-2.9698-4.622-4.6953-6.5472-8.6937-9.6998-11.131-20.811-9.7876-44.612 0.54375-9.6317 0.99833-23.84 1.0102-31.575 0.0188-12.306 1.69-33.266 3.3823-42.422 1.0091-5.4597-2.8719-2.8618-5.6022 3.75-1.0959 2.6539-1.992 3.5156-3.6559 3.5156-4.602 0-5.3458-4.0384-1.045-5.6736 2.2975-0.87351 2.9544-3.1343 1.2218-4.2051-3.0056-1.8576-6.5211 1.6392-8.6291 8.5832-1.2578 4.1433-2.6042 6.9065-3.3678 6.9118-0.82941 0.0057-1.0513-0.56221-0.63747-1.6318 2.4932-6.4447 0.25544-10.502-3.2379-5.8709-0.91383 1.2115-2.0972 1.8652-2.7009 1.4921-1.7129-1.0586-5.0794 0.34369-3.9866 1.6605 1.704 2.0532-0.60647 9.7267-3.1186 10.357-1.3356 0.3352-2.4224 1.5027-2.8002 3.0079-0.53767 2.1422-0.97504 2.3886-3.3849 1.9066-1.5512-0.31023-2.7675-0.15176-2.7675 0.36056 0 0.50274 0.84375 0.91406 1.875 0.91406 1.9906 0 2.6851 3.1387 0.93406 4.2209-0.51752 0.31984-0.68273 1.6104-0.36712 2.8678 0.43732 1.7424 0.19993 2.2863-0.9979 2.2863-1.3864 0-1.3431 0.32112 0.36713 2.7228 3.4521 4.848 2.7168 5.7003-2.5038 2.9022-5.0132-2.6869-5.8699-2.4406-5.8699 1.6875 0 4.9583 2.9901 7.8822 4.0226 3.9336 0.31573-1.2074 0.99901-1.6841 1.9119-1.3338 2.1712 0.83318 2.7198 3.3161 1.0091 4.5671-1.4036 1.0263-1.4049 1.2378-0.0163 2.6264 3.0182 3.0182 1.5599 4.575-1.9696 2.1028-1.1532-0.80772-2.255-1.0393-2.5643-0.539-0.87011 1.4079 1.2989 5.2341 3.5217 6.2125 2.4015 1.057 3.3368 4.1803 1.2519 4.1803-0.77441 0-2.1472-0.73828-3.0507-1.6406-1.5648-1.5628-1.6083-1.5295-0.91682 0.70312 0.39924 1.2891 0.9512 3.6094 1.2266 5.1562 0.27536 1.5469 1.2906 3.5672 2.2561 4.4896 0.96549 0.92243 1.7554 2.5248 1.7554 3.5609s0.84375 3.6301 1.875 5.7646c2.3918 4.9505 2.3889 4.9597-0.84785 2.655-5.3384-3.8012-5.2318 0.34068 0.16045 6.2398 1.7104 1.8712 1.7472 2.1458 0.35909 2.6784-2.6152 1.0035-1.7282 3.7509 2.2607 7.0022 5.2494 4.2788 6.6541 6.942 3.3258 6.3058-1.3451-0.25714-2.4456-0.29413-2.4456-0.0822 0 0.98698 2.9379 5.9202 3.5397 5.9438 1.5194 0.0595 8.6478 7.2339 8.6478 8.7036 0 1.8499-1.0433 2.039-2.6094 0.47293-1.4134-1.4134-2.4927-0.38575-1.7173 1.635 0.33039 0.86096 1.1898 1.3147 1.9428 1.0258 0.81417-0.31243 1.5819 0.21141 1.9335 1.3193 0.82478 2.5987 5.2695 4.6294 10.133 4.6294 2.6058 0 4.5995 0.54101 5.3569 1.4536 1.5427 1.8589 5.943 1.3931 6.3341-0.67043zm-16.222-3.6015c-2.194-2.4244-1.3561-3.1829 2.6798-2.4257 4.3055 0.80771 6.1344 2.9254 3.2046 3.7104-3.323 0.89034-4.062 0.72902-5.8843-1.2847zm85.696 3.3965c0.82991-0.99998 0.7489-1.4224-0.35397-1.8456-1.5859-0.60857-4.2427 0.15001-4.2427 1.2114 0 2.1344 3.0072 2.5493 4.5966 0.63418zm-25.143-1.047c0.0113-0.51563-0.65937-1.0786-1.4902-1.2512-2.1965-0.4561-4.4324 0.60723-3.7156 1.767 0.75618 1.2235 5.1775 0.78539 5.2058-0.51586zm-241.86-4.4966c-0.75453-0.75452-1.0269-0.28589-1.0061 1.731 0.02499 2.4245 0.15262 2.5521 1.0346 1.0346 0.72108-1.2406 0.713-2.0241-0.02851-2.7656zm227.25 1.2154c1.6424-3.1761 2.7523-3.4754 4.9049-1.3228 2.1429 2.1429 3.4411-0.40156 2.0375-3.9936-1.2762-3.266-1.2487-21.602 0.0395-26.358 4.604-16.996 7.2188-33.973 7.9726-51.763 0.88039-20.779 3.8502-33.562 9.5265-41.003 1.93-2.5304 2.1768-3.4093 1.2654-4.5074-1.578-1.9013-3.4888-1.7009-4.8701 0.51087-1.4886 2.3837-2.7941 2.3698-4.9867-0.0531-3.3112-3.6588-8.5076-0.77782-11.17 6.1928-2.1808 5.7102-3.3136 5.2327-3.3136-1.3968 0-6.2741-0.93741-7.4478-4.227-5.2924-1.2482 0.81788-3.9202 1.4871-5.9377 1.4871s-4.1381 0.56616-4.7124 1.2581c-1.2742 1.5353-0.46444 2.4849 2.1427 2.5127 3.5505 0.03789 9.9215 7.0795 8.4944 9.3885-0.94861 1.5349-8.0477 0.49102-9.0687-1.3335-1.9148-3.4216-4.7931-1.824-4.1344 2.295 0.33494 2.0946 0.1211 5.5751-0.4752 7.7344s-1.1913 7.5119-1.3222 11.895c-0.13088 4.3828-0.30196 8.6016-0.38018 9.375-0.0782 0.77344 0.13487 2.5664 0.47353 3.9844 0.47843 2.0032 0.27778 2.5781-0.89981 2.5781-1.9248 0-1.9503 2.712-0.0512 5.4235 1.6193 2.3119 0.45075 3.4531-2.9112 2.8429-2.596-0.47118-2.6068 1.6219-0.0226 4.4103 2.5678 2.7707 2.4111 4.1983-0.46085 4.1983-2.2967 0-2.2865 1.0346 0.0553 5.625 2.2893 4.4874 2.3078 4.8424 0.23438 4.4942-1.1791-0.19798-1.7241 0.44975-1.9373 2.3027-0.16316 1.418-0.6905 2.5781-1.1719 2.5781-2.4158 0-0.67675 5.6034 2.8748 9.263 4.0875 4.2119 4.8265 7.6811 2.244 10.535-1.3876 1.5333-1.3615 1.8706 0.33204 4.2926 1.0109 1.4457 2.1318 3.8416 2.4908 5.3242 0.37223 1.537 3.2855 5.2517 6.7778 8.6424 3.3688 3.2707 6.207 6.4874 6.3071 7.1481 0.20807 1.3726 1.4555 3.545 2.0356 3.545 0.21413 0 1.0438-1.2656 1.8437-2.8125zm-4.215-6.3446c-3.3567-3.2174-2.4816-36.78 0.95902-36.78 0.43637 0 0.98733-1.3711 1.2244-3.0469s0.32572-0.9375 0.19712 1.6406-0.98124 8.9062-1.8948 14.062c-1.9124 10.794-0.9622 19.26 2.3975 21.358 2.0734 1.2949 2.3135 2.8727 0.62865 4.1328-0.7989 0.59747-1.9166 0.16256-3.5118-1.3665zm7.5528-90.687c-1.1807-5.9167-1.2846-6.7384-1.1052-8.7388 0.24314-2.7116 2.9554 1.6811 3.4794 5.6351 0.96003 7.2441-1.0291 9.8444-2.3742 3.1037zm5.2801-11.861c-0.90535-0.50666-2.7929-0.7873-4.1945-0.62363-2.0397 0.23818-2.6082-0.12347-2.848-1.8118-0.19592-1.3795 0.18481-2.1094 1.1004-2.1094 2.7221 0 10.918 2.2074 10.918 2.9405 0 1.4807-3.297 2.5438-4.9758 1.6043zm-0.6922-8.3751c-1.1696-2.1854-1.23-2.0595 1.7285-3.5997 1.1848-0.61682 2.5455-2.1505 3.0237-3.4082 1.0965-2.8841 3.5224-2.9648 4.2312-0.14078 1.6092 6.4116-6.0962 12.543-8.9834 7.1487zm5.7606 102.04c-0.50298-1.3229-1.3624-2.6822-1.9098-3.0205-1.3139-0.81203-1.294 2.8107 0.0291 5.2828 1.4667 2.7406 3.0561 0.82886 1.8808-2.2623zm-223.22-2.5875c0-2.996-0.80136-3.5111-2.625-1.6875-1.8121 1.8121-1.3641 4.5 0.75 4.5 1.4583 0 1.875-0.625 1.875-2.8125zm224.06-6.5625c0-2.3097-1.7298-3.3442-2.4507-1.4657-0.73864 1.9248 0.30168 4.5582 1.5066 3.8135 0.51926-0.32093 0.94412-1.3775 0.94412-2.3478zm-217.81-1.4648c0.15275-0.4834-0.11972-1.5082-0.60549-2.2773-1.1805-1.869-3.3319 0.16094-2.4915 2.3508 0.60374 1.5733 2.5916 1.5261 3.097-0.0735zm229.36-69.467c0.34048-0.34047-0.2493-1.2273-1.3106-1.9706-2.1764-1.5244-3.2513-1.0172-2.4224 1.143 0.56815 1.4806 2.6243 1.9364 3.733 0.82765zm-166.24-5.6891c0-0.88463-0.54086-1.185-1.4829-0.82346-0.8156 0.31298-2.0664 0.56905-2.7795 0.56905-0.71313 0-1.7227 0.7962-2.2435 1.7693-0.88831 1.6598-0.71628 1.7108 2.7795 0.82346 2.2465-0.57023 3.7264-1.4989 3.7264-2.3384zm17.812-6.052c0-2.3943-3.3035-0.03657-3.537 2.5244l-0.25574 2.8045 1.8964-2.2132c1.043-1.2173 1.8964-2.6193 1.8964-3.1156zm206.44-2.8582c4.9654-2.3913 5.3211-4.0726 0.81559-3.8555-3.1914 0.15375-6.6352 2.5869-6.6352 4.6879 0 1.7257 0.72245 1.6224 5.8196-0.83236zm-115.51-24.157c0-0.51562-1.0547-0.9375-2.3438-0.9375s-2.3438 0.42188-2.3438 0.9375 1.0547 0.9375 2.3438 0.9375 2.3438-0.42188 2.3438-0.9375zm13.125-0.96692c0-0.53181-0.63281-1.2098-1.4062-1.5066-1.8776-0.72048-4.4875 0.34275-3.7541 1.5294 0.7678 1.2423 5.1604 1.2229 5.1604-0.022802zm10.312-0.90808c0-0.51562-0.81885-0.9375-1.8197-0.9375s-2.0804 0.42188-2.3991 0.9375c-0.32861 0.53171 0.45902 0.9375 1.8197 0.9375 1.3195 0 2.3991-0.42188 2.3991-0.9375zm51.094 303.08c-2.016-0.48509-7.0312-4.8141-7.0312-6.0692 0-1.1291 5.4135-0.92523 6.128 0.23076 0.3375 0.54607 1.5226 0.92125 2.6335 0.83373 1.1109-0.0876 2.5472-0.11244 3.1917-0.0553 1.7011 0.15064 1.4397 4.4879-0.31105 5.1597-1.5747 0.60427-1.6965 0.60163-4.6108-0.0996zm65.625-34.956-2.8125-0.71566 3.0469-0.11092c1.6758-0.061 3.0469 0.31095 3.0469 0.82658 0 0.51562-0.10547 0.88759-0.23438 0.82658-0.1289-0.061-1.5-0.43297-3.0469-0.82658zm-59.123-55.084c-3.9424-8.8847-1.2745-16.739 8.0923-23.822 1.5911-1.2033 4.8645-3.8963 7.2742-5.9845 5.4617-4.7329 8.1139-6.3872 12.595-7.856 2.015-0.66051 4.5736-2.5292 5.9706-4.3609 2.9342-3.847 3.9681-3.9375 8.7585-0.7674 6.8059 4.5039 8.2694 9.7617 1.7836 6.4077-3.6021-1.8627-8.6527-1.2812-11.501 1.3241-1.0862 0.99348-3.6624 2.6528-5.7249 3.6874-4.4012 2.2077-6.5171 4.3562-7.9176 8.0398-0.83827 2.2048-1.4129 2.5751-3.2722 2.1084-1.9579-0.49141-2.3415-0.16438-2.9086 2.48-0.93936 4.3798-1.3522 4.7594-3.2793 3.0153-2.4168-2.1872-3.716-0.96979-3.716 3.4821 0 3.3618-0.17366 3.6653-1.4777 2.5831-2.2418-1.8605-3.391 0.57928-2.7551 5.8491 0.53998 4.4749-0.61271 6.7632-1.9213 3.8142zm-15.408-13.77c0-1.3866 3.771-4.5634 4.5236-3.8109 0.62396 0.62397-2.5478 5.164-3.6077 5.164-0.50374 0-0.91589-0.60889-0.91589-1.3531zm12.474-13.208c2.6579-2.3383 5.3384-3.0562 5.3384-1.4298 0 1.3583-3.9371 3.8067-6.068 3.7735-1.7188-0.0268-1.6489-0.25123 0.72963-2.3438zm11.561-7.7313c-0.301-0.48702 0.91807-2.9465 2.709-5.4655 1.976-2.7793 3.2563-3.9362 3.2563-2.9424 0 0.9007-0.42188 1.6376-0.9375 1.6376-0.51563 0-0.9375 0.41167-0.9375 0.91484 0 1.6885-3.5366 6.7513-4.0903 5.8555z"/>
</svg>
