<?xml version="1.0" standalone="no"?>
<!DOCTYPE svg PUBLIC "-//W3C//DTD SVG 20010904//EN"
 "http://www.w3.org/TR/2001/REC-SVG-20010904/DTD/svg10.dtd">
<svg version="1.0" xmlns="http://www.w3.org/2000/svg"
 width="1024.000000pt" height="1024.000000pt" viewBox="0 0 1024.000000 1024.000000"
 preserveAspectRatio="xMidYMid meet">

<g transform="translate(0.000000,1024.000000) scale(0.100000,-0.100000)"
fill="#000000" stroke="none">
<path d="M4960 8259 c-774 -55 -1527 -383 -2049 -893 -408 -399 -676 -817
-847 -1321 -242 -716 -230 -1524 31 -2191 177 -451 419 -811 786 -1169 155
-151 252 -230 428 -348 457 -308 922 -483 1461 -549 65 -8 218 -13 405 -13
319 1 417 9 666 60 665 136 1251 459 1734 956 343 353 601 788 748 1259 51
165 63 214 97 413 116 683 12 1374 -302 2000 -210 420 -554 836 -920 1113
-391 297 -819 500 -1268 603 -337 77 -648 103 -970 80z m430 -313 c0 -7 -6
-31 -14 -52 -55 -158 -61 -447 -12 -629 57 -212 158 -402 337 -640 288 -380
352 -497 423 -777 42 -164 56 -275 56 -443 0 -214 -32 -400 -97 -575 -34 -90
-99 -230 -107 -230 -2 0 7 35 21 77 13 43 33 132 45 198 17 102 19 147 15 300
-6 179 -17 254 -57 380 -89 285 -203 471 -487 796 -191 218 -275 335 -347 482
-64 131 -98 231 -127 371 -17 85 -20 124 -15 246 2 80 8 160 12 179 l7 34 -99
-6 c-163 -10 -437 -71 -645 -142 -57 -20 -189 -78 -294 -130 -396 -195 -708
-444 -1000 -800 -219 -268 -408 -589 -543 -925 -83 -206 -171 -536 -204 -760
l-13 -85 -6 60 c-11 97 -10 374 1 486 6 57 24 172 41 254 113 570 369 1043
799 1476 161 162 230 218 455 367 373 249 790 410 1220 472 180 25 191 26 433
28 165 2 202 0 202 -12z m515 -78 c510 -131 1009 -415 1381 -785 241 -241 415
-484 569 -798 343 -699 387 -1493 125 -2260 -55 -160 -200 -453 -295 -595
-168 -251 -402 -510 -620 -685 -290 -233 -642 -424 -975 -531 -333 -106 -655
-151 -1005 -140 -569 17 -1096 185 -1570 499 -291 193 -540 430 -726 692 -104
145 -107 155 -18 69 378 -368 841 -609 1355 -707 71 -14 152 -28 181 -31 l52
-7 6 48 c29 208 110 375 257 529 145 151 292 239 628 374 331 133 528 256 712
446 295 303 488 728 538 1183 16 140 8 430 -15 556 -38 212 -110 430 -202 608
-26 51 -129 214 -228 362 -192 287 -251 393 -308 545 -69 186 -81 248 -82 425
0 104 5 175 13 204 l13 43 47 -7 c26 -3 101 -20 167 -37z m-1377 -692 c-478
-264 -900 -730 -1138 -1257 -220 -486 -281 -984 -185 -1494 72 -381 236 -732
488 -1045 107 -134 310 -329 405 -392 41 -26 68 -48 60 -48 -8 0 -66 18 -130
39 -386 130 -726 400 -977 779 -161 241 -278 538 -334 847 -18 102 -22 156
-22 355 1 200 4 254 24 363 88 496 309 916 676 1283 306 307 695 520 1110 608
124 26 127 20 23 -38z m316 -141 c57 -286 171 -498 456 -855 180 -224 211
-269 283 -412 66 -129 114 -265 144 -408 28 -133 25 -413 -5 -547 -60 -270
-163 -468 -315 -609 -83 -76 -211 -144 -332 -175 -162 -41 -703 -44 -914 -4
-160 31 -222 66 -255 147 -31 73 -12 150 62 261 71 107 69 157 -14 250 -44 48
-44 79 0 123 41 41 60 42 134 5 31 -16 81 -36 111 -45 59 -17 125 -21 119 -7
-1 5 -41 34 -87 66 -88 59 -275 207 -287 226 -3 6 21 36 54 67 66 61 86 98 76
139 -4 14 -51 75 -105 136 -134 148 -148 199 -67 240 18 9 77 36 132 61 120
56 205 118 312 228 166 170 220 292 249 558 8 74 20 160 26 190 14 67 63 207
96 275 23 47 105 177 109 172 1 -1 9 -38 18 -82z"/>
<path d="M6300 3647 c-236 -230 -469 -348 -890 -452 -356 -88 -531 -167 -673
-304 -86 -82 -154 -187 -182 -280 l-7 -24 133 6 c144 6 333 38 516 86 482 128
943 480 1139 871 36 72 87 200 82 205 -2 2 -55 -47 -118 -108z"/>
<path d="M4668 5993 c-21 -9 -38 -21 -38 -28 0 -7 15 -35 33 -61 40 -58 130
-122 207 -148 78 -27 245 -33 332 -12 102 24 266 111 246 132 -4 4 -34 1 -65
-5 -32 -7 -121 -15 -198 -18 -122 -5 -152 -3 -224 16 -94 23 -149 52 -201 105
-39 40 -41 40 -92 19z"/>
</g>
</svg>
