<?xml version="1.0" standalone="no"?>
<svg xmlns:xlink="http://www.w3.org/1999/xlink" id="wave" style="transform:rotate(0deg); transition: 0.3s" viewBox="0 0 1440 200" version="1.1" xmlns="http://www.w3.org/2000/svg"><defs><linearGradient id="sw-gradient-0" x1="0" x2="0" y1="1" y2="0"><stop stop-color="rgba(92, 225, 230, 1)" offset="0%"/><stop stop-color="rgba(92, 225, 230, 1)" offset="100%"/></linearGradient></defs><path style="transform:translate(0, 0px); opacity:1" fill="url(#sw-gradient-0)" d="M0,100L34.3,96.7C68.6,93,137,87,206,80C274.3,73,343,67,411,83.3C480,100,549,140,617,140C685.7,140,754,100,823,86.7C891.4,73,960,87,1029,96.7C1097.1,107,1166,113,1234,120C1302.9,127,1371,133,1440,126.7C1508.6,120,1577,100,1646,83.3C1714.3,67,1783,53,1851,46.7C1920,40,1989,40,2057,53.3C2125.7,67,2194,93,2263,93.3C2331.4,93,2400,67,2469,73.3C2537.1,80,2606,120,2674,143.3C2742.9,167,2811,173,2880,176.7C2948.6,180,3017,180,3086,163.3C3154.3,147,3223,113,3291,83.3C3360,53,3429,27,3497,13.3C3565.7,0,3634,0,3703,10C3771.4,20,3840,40,3909,46.7C3977.1,53,4046,47,4114,36.7C4182.9,27,4251,13,4320,26.7C4388.6,40,4457,80,4526,100C4594.3,120,4663,120,4731,123.3C4800,127,4869,133,4903,136.7L4937.1,140L4937.1,200L4902.9,200C4868.6,200,4800,200,4731,200C4662.9,200,4594,200,4526,200C4457.1,200,4389,200,4320,200C4251.4,200,4183,200,4114,200C4045.7,200,3977,200,3909,200C3840,200,3771,200,3703,200C3634.3,200,3566,200,3497,200C3428.6,200,3360,200,3291,200C3222.9,200,3154,200,3086,200C3017.1,200,2949,200,2880,200C2811.4,200,2743,200,2674,200C2605.7,200,2537,200,2469,200C2400,200,2331,200,2263,200C2194.3,200,2126,200,2057,200C1988.6,200,1920,200,1851,200C1782.9,200,1714,200,1646,200C1577.1,200,1509,200,1440,200C1371.4,200,1303,200,1234,200C1165.7,200,1097,200,1029,200C960,200,891,200,823,200C754.3,200,686,200,617,200C548.6,200,480,200,411,200C342.9,200,274,200,206,200C137.1,200,69,200,34,200L0,200Z"/><defs><linearGradient id="sw-gradient-1" x1="0" x2="0" y1="1" y2="0"><stop stop-color="rgba(131, 233, 237, 1)" offset="0%"/><stop stop-color="rgba(131, 233, 237, 1)" offset="100%"/></linearGradient></defs><path style="transform:translate(0, 50px); opacity:0.9" fill="url(#sw-gradient-1)" d="M0,0L34.3,10C68.6,20,137,40,206,70C274.3,100,343,140,411,146.7C480,153,549,127,617,116.7C685.7,107,754,113,823,123.3C891.4,133,960,147,1029,133.3C1097.1,120,1166,80,1234,66.7C1302.9,53,1371,67,1440,83.3C1508.6,100,1577,120,1646,113.3C1714.3,107,1783,73,1851,53.3C1920,33,1989,27,2057,30C2125.7,33,2194,47,2263,66.7C2331.4,87,2400,113,2469,110C2537.1,107,2606,73,2674,76.7C2742.9,80,2811,120,2880,133.3C2948.6,147,3017,133,3086,136.7C3154.3,140,3223,160,3291,143.3C3360,127,3429,73,3497,60C3565.7,47,3634,73,3703,70C3771.4,67,3840,33,3909,20C3977.1,7,4046,13,4114,33.3C4182.9,53,4251,87,4320,83.3C4388.6,80,4457,40,4526,36.7C4594.3,33,4663,67,4731,80C4800,93,4869,87,4903,83.3L4937.1,80L4937.1,200L4902.9,200C4868.6,200,4800,200,4731,200C4662.9,200,4594,200,4526,200C4457.1,200,4389,200,4320,200C4251.4,200,4183,200,4114,200C4045.7,200,3977,200,3909,200C3840,200,3771,200,3703,200C3634.3,200,3566,200,3497,200C3428.6,200,3360,200,3291,200C3222.9,200,3154,200,3086,200C3017.1,200,2949,200,2880,200C2811.4,200,2743,200,2674,200C2605.7,200,2537,200,2469,200C2400,200,2331,200,2263,200C2194.3,200,2126,200,2057,200C1988.6,200,1920,200,1851,200C1782.9,200,1714,200,1646,200C1577.1,200,1509,200,1440,200C1371.4,200,1303,200,1234,200C1165.7,200,1097,200,1029,200C960,200,891,200,823,200C754.3,200,686,200,617,200C548.6,200,480,200,411,200C342.9,200,274,200,206,200C137.1,200,69,200,34,200L0,200Z"/></svg>